<?xml version="1.0" encoding="UTF-8" standalone="no"?>
<!-- Created with Inkscape (http://www.inkscape.org/) -->

<svg
   xmlns:osb="http://www.openswatchbook.org/uri/2009/osb"
   xmlns:dc="http://purl.org/dc/elements/1.1/"
   xmlns:cc="http://creativecommons.org/ns#"
   xmlns:rdf="http://www.w3.org/1999/02/22-rdf-syntax-ns#"
   xmlns:svg="http://www.w3.org/2000/svg"
   xmlns="http://www.w3.org/2000/svg"
   xmlns:sodipodi="http://sodipodi.sourceforge.net/DTD/sodipodi-0.dtd"
   xmlns:inkscape="http://www.inkscape.org/namespaces/inkscape"
   width="1653.4503"
   height="623.35095"
   id="svg2"
   version="1.1"
   inkscape:version="0.92.2 (5c3e80d, 2017-08-06)"
   sodipodi:docname="sucre_map2.svg">
  <defs
     id="defs4">
    <linearGradient
       id="linearGradient2349"
       osb:paint="solid">
      <stop
         style="stop-color:#7f6956;stop-opacity:1;"
         offset="0"
         id="stop2347" />
    </linearGradient>
    <linearGradient
       id="linearGradient909"
       osb:paint="solid">
      <stop
         style="stop-color:#000000;stop-opacity:1;"
         offset="0"
         id="stop907" />
    </linearGradient>
  </defs>
  <sodipodi:namedview
     id="base"
     pagecolor="#ffffff"
     bordercolor="#666666"
     borderopacity="1.0"
     inkscape:pageopacity="0.0"
     inkscape:pageshadow="2"
     inkscape:zoom="0.74389898"
     inkscape:cx="749.49651"
     inkscape:cy="405.71185"
     inkscape:document-units="px"
     inkscape:current-layer="layer2"
     showgrid="false"
     inkscape:window-width="1360"
     inkscape:window-height="715"
     inkscape:window-x="-8"
     inkscape:window-y="-8"
     inkscape:window-maximized="1"
     fit-margin-top="0"
     fit-margin-left="0"
     fit-margin-right="0"
     fit-margin-bottom="0"
     inkscape:snap-page="false"
     showguides="true"
     inkscape:guide-bbox="true"
     inkscape:snap-bbox="true"
     borderlayer="true"
     inkscape:snap-to-guides="false"
     inkscape:snap-grids="false"
     inkscape:snap-others="false"
     inkscape:object-nodes="false"
     inkscape:snap-nodes="false"
     inkscape:snap-global="false" />
  <metadata
     id="metadata7">
    <rdf:RDF>
      <cc:Work
         rdf:about="">
        <dc:format>image/svg+xml</dc:format>
        <dc:type
           rdf:resource="http://purl.org/dc/dcmitype/StillImage" />
        <dc:title />
      </cc:Work>
    </rdf:RDF>
  </metadata>
  <g
     inkscape:groupmode="layer"
     id="layer1"
     inkscape:label="Municipios"
     transform="translate(-8776.1865,-972.13578)"
     style="display:inline"
     sodipodi:insensitive="true">
    <path
       id="Valdez"
       transform="translate(3456.9319,2.5275578)"
       style="fill:#da8859;fill-opacity:1;stroke:#646464;stroke-width:0.5;stroke-linecap:butt;stroke-linejoin:round;stroke-miterlimit:4;stroke-dasharray:none;stroke-opacity:1"
       d="m 6923.0261,1082.295 -2.0781,0.1299 -1.6884,3.247 -4.1562,2.208 -14.2869,2.0781 -1.4286,1.8183 h -3.3769 l -4.9355,4.6757 -0.5195,3.6367 -6.2343,4.4159 -7.5331,0.6494 -1.1689,1.4287 -1.8183,-0.6494 -3.1172,-2.208 -2.9872,0.3897 -4.9355,2.3378 h -3.3769 l -2.4677,-1.6884 -14.157,0.7793 -13.8972,4.8056 -1.9482,-1.4287 -6.3642,0.1298 -8.3371,6.5691 -3.0692,0.2142 -4.4967,-3.4975 -2.855,2.07 -8.4224,-3.2833 h -2.9264 l -5.8529,3.1405 h -2.7122 l -5.496,-3.9971 -8.7079,-0.071 -3.7829,-2.8551 h -1.6417 l -10.4209,8.7793 -4.9963,1.4989 -5.5674,0.1424 -4.2112,-0.8566 -3.6402,-0.071 -1.5702,1.7844 -5.5674,-2.0699 -3.7829,-4.3539 h -2.0699 l -3.9971,1.9985 h -5.0677 l -3.7829,-1.0706 -7.0663,-0.3569 -1.4275,2.0699 -4.1742,-3.3226 -1.6749,1.1964 -1.5554,-0.1197 -3.8285,-3.1106 -4.5464,-0.5982 -9.4517,5.6231 -5.8624,-2.991 -1.3161,-0.1197 -3.1107,1.9143 h -7.0588 l -8.8535,-7.0589 -5.1446,-1.316 -10.1696,4.666 -5.0249,-0.7178 -2.6321,-2.8714 -3.4696,3.8285 -8.2553,-0.4786 -3.7089,-3.3499 h -2.1535 l -0.7179,1.4357 h -6.2214 l -3.7088,-3.1107 h -0.9572 l -2.5125,2.6321 -3.5892,0.3589 -1.3161,-1.1964 -1.4357,-0.2393 -0.9571,1.3161 h -1.5553 l -3.9482,-2.5125 -17.707,-0.4786 -3.5186,2.0422 14.0795,52.3074 13.1047,26.0046 -0.3582,18.9549 2.0075,0.1812 0.42,-1.9569 1.118,-0.8388 1.118,-0.4193 6.151,-5.871 1.957,-0.6989 0.14,-0.8387 h 1.537 l 1.678,3.0752 h 1.537 l 0.559,-1.3978 4.474,-2.5161 h 3.354 l 7.129,4.8924 6.011,1.5377 4.753,6.5699 3.355,-0.2796 0.419,-1.3978 1.118,-0.1398 0.56,1.5376 h 2.096 l 1.678,-1.8172 h 1.817 l 4.054,-4.1935 0.419,0.2795 0.559,1.8172 5.592,-0.1398 0.559,-2.9354 3.355,-1.8173 1.397,-4.1935 4.893,-4.8925 2.516,-0.8387 2.796,-3.0753 0.279,-2.3763 1.258,-0.1398 2.377,3.3548 1.398,-0.1397 0.419,-1.1183 -3.634,-3.914 v -0.8387 l 2.096,-1.6774 0.559,-5.1721 4.054,-5.172 3.914,-1.5377 0.42,-2.0968 3.774,-4.4731 5.312,-9.2258 4.184,-4.466 3.973,-0.3095 1.528,2.0366 1.188,-1.8669 8.995,0.1698 1.188,1.5274 2.545,-0.1697 0.679,-1.5275 5.431,-1.5274 h 1.528 l 1.188,1.6972 13.577,-0.5092 1.867,-0.3394 9.164,-1.188 3.564,-1.3577 0.34,-2.0366 1.188,-0.1697 0.848,3.3943 3.395,1.6971 7.807,0.6789 0.678,-3.564 1.867,-0.3395 0.509,3.3943 4.922,1.3577 0.34,-1.6971 1.188,0.6789 1.866,3.0548 1.019,-0.5091 1.188,-2.5457 2.206,0.1697 0.339,1.3577 7.128,-0.6789 0.849,-1.188 1.867,0.3395 0.679,2.376 h 4.243 l 2.036,-0.8486 3.055,-0.1697 0.17,-0.5092 -2.716,-2.7154 0.679,-2.5457 1.867,-0.5092 4.752,1.3577 0.17,5.2612 1.867,-0.3394 1.018,-1.6972 h 2.885 l 0.679,-2.8851 2.885,-0.5092 0.849,1.0183 0.169,3.7337 9.674,-0.5091 1.867,-1.188 0.509,-3.7337 2.885,-1.8669 4.922,-0.1697 0.17,4.0731 2.376,0.1698 0.339,-2.0366 h 3.225 l 1.018,-1.6972 h 0.679 l 0.509,2.7155 4.073,-2.5457 0.34,-4.2429 3.903,-0.1697 1.867,1.0183 1.527,3.9034 h 6.28 l 0.339,-1.6972 1.697,-0.1697 0.849,1.188 3.734,-0.1697 2.885,-2.8851 4.073,-0.8486 1.527,-1.188 -0.169,-2.0366 1.018,-1.6971 4.752,-2.7155 0.17,-0.8485 1.357,0.1697 v 2.376 l 2.546,1.188 1.018,1.0183 1.358,-0.1697 v -0.6789 l 5.431,-1.5274 2.885,-2.376 3.564,-0.5092 v -1.188 l -1.867,-0.6789 -0.848,-3.3942 -1.528,-0.5092 0.51,-1.5274 1.697,-0.1697 1.357,-4.7521 1.867,-1.188 0.679,-3.2245 1.528,-1.0183 1.697,0.1697 v 2.0366 l -3.734,3.7337 -0.339,3.2246 2.206,1.8668 4.243,0.6789 1.357,-1.0183 0.849,-3.564 2.885,-2.376 v -1.188 l -1.697,-0.5092 0.679,-4.2428 3.394,-1.8669 -0.17,-2.5457 -1.018,-0.1697 v -2.0366 l 2.716,-2.0366 -0.17,-0.5091 -1.528,-0.3395 0.849,-6.9583 0.849,-1.6971 1.018,0.3394 0.702,1.2425 h 2.381 l 3.9994,-4.5181 z"
       inkscape:connector-curvature="0"
       sodipodi:nodetypes="ccccccccccccccccccccccccccccccccccccccccccccccccccccccccccccccccccccccccccccccccccccccccccccccccccccccccccccccccccccccccccccccccccccccccccccccccccccccccccccccccccccccccccccccccccccccccccccccccccccccccccccccccccccccccccccccccccccccccccccccccccccccccccccccc"
       inkscape:label="Valdez" />
    <path
       id="Marino"
       transform="translate(3456.9319,2.5275578)"
       style="fill:#7f6956;fill-opacity:1;stroke:#646464;stroke-width:0.5;stroke-linecap:butt;stroke-linejoin:round;stroke-miterlimit:4;stroke-dasharray:none;stroke-opacity:1"
       d="m 6578.5541,1203.1451 -1.538,-1.957 -3.914,-0.8387 -3.215,-5.0323 -4.333,-2.2365 h -4.334 l -0.699,1.258 -3.634,0.4194 -0.699,-1.3979 -2.376,-0.1397 -0.28,-1.3979 -0.839,-0.1398 -0.559,1.5377 -3.914,0.2795 -0.419,-1.6774 -1.538,-0.1398 -5.3116,5.4516 -1.5376,0.2796 -0.5592,-1.6774 -2.6559,-0.2796 -2.6559,1.3979 0.1398,1.1183 h -4.3334 l -1.5376,-3.0753 -3.0753,-1.6774 -8.2473,-0.699 -8.1075,-1.3978 -3.4947,-3.7742 -2.9355,-1.6774 -7.6881,-0.1398 -0.5592,1.1183 -1.3978,0.1397 -2.656,-2.6559 -9.086,-0.2795 -2.7957,-2.7957 -1.5376,2.0967 -0.6989,-0.2795 -0.5592,-0.9785 -6.7097,-0.5592 -0.6989,2.2366 h -1.5376 l -3.7742,-4.0538 -6.9893,-2.0968 -6.4301,-0.2795 -1.8172,1.3978 -3.4946,0.1398 -0.4194,-1.1183 -0.8387,-0.4193 -0.6989,1.3978 -7.1291,3.3549 -6.7097,4.7527 -6.8494,1.5376 -2.7957,1.1183 -14.3979,-0.4194 -1.2581,1.5377 -4.4731,-0.1398 -3.0753,-2.6559 -1.7418,-0.1841 0.3748,-3.6323 8.0216,-5.8909 3.6348,0.1253 8.147,-5.7655 5.8909,-0.7521 0.1254,-3.3841 2.3814,-1.128 0.6267,1.2534 4.0108,0.2506 2.0054,-6.1416 1.0027,-0.2506 v -3.6348 l -2.6321,-0.7521 -1.128,-2.2561 1.0027,-1.128 0.1253,-2.7574 3.7602,-2.2561 -3.6809,-20.0412 3.3263,-0.3812 17.1443,-8.5721 4.286,-0.1299 0.7793,0.9091 1.6885,0.5196 4.5458,-3.3769 1.039,-8.1825 7.2733,-7.2733 1.5586,0.3896 4.5458,3.3769 4.8056,0.2598 1.039,1.8183 3.1172,0.2598 1.039,-1.5586 2.0781,-0.1299 2.8574,2.8574 4.2861,-0.2598 2.4677,-1.4287 0.9091,-4.9354 4.8056,-5.455 3.5068,0.2598 0.9092,1.4286 h 1.5585 l 3.8965,-3.247 2.3378,-0.2597 0.9092,1.1689 5.8446,0.9092 4.0263,2.5976 h 3.1171 l 1.4287,-1.2988 1.9482,-0.5196 0.9092,1.5586 7.1434,0.7793 4.9355,3.8964 1.5586,0.2598 1.5585,-1.6885 7.2733,-0.2597 5.6777,2.7682 14.0914,52.1998 13.1047,26.0046 -0.3582,18.9549 z"
       inkscape:connector-curvature="0"
       sodipodi:nodetypes="cccccccccccccccccccccccccccccccccccccccccccccccccccccccccccccccccccccccccccccccccccccccccccccccccccccccccccccccccccccc"
       inkscape:label="Marino" />
    <path
       id="Cajigal"
       transform="translate(3456.9319,2.5275578)"
       style="fill:#3ec8f7;fill-opacity:1;stroke:#646464;stroke-width:0.5;stroke-linecap:butt;stroke-linejoin:round;stroke-miterlimit:4;stroke-dasharray:none;stroke-opacity:1"
       d="m 6322.3217,1199.7305 -3.9635,-2.086 -3.755,0.1043 -1.8775,1.6688 h -16.6887 l -3.1292,2.6076 -3.2334,0.1043 -4.798,-4.3807 -0.2086,-6.2583 2.1903,-2.2947 v -3.8593 l -0.6258,-0.1043 -2.7119,-12.2036 -0.4172,-4.1722 1.2516,-0.8345 1.8733,-5.0787 16.8056,-33.0834 1.0348,-13.1575 7.8354,-1.1827 0.2957,-1.3305 5.3221,-0.1479 4.2873,2.2176 h 3.9916 l 4.8786,-3.5481 13.3053,-0.4435 3.696,-3.8438 h 1.9218 l 2.4294,4.412 9.2498,11.8501 0.2956,4.2873 -1.3305,1.0348 -0.4435,1.9219 1.3305,0.7392 5.47,0.887 6.6527,-1.9219 2.5132,-3.8437 5.7436,-2.8381 7.1182,-6.9192 1.4784,0.887 5.7657,3.696 5.0264,-2.2176 13.1575,0.1478 7.5397,3.2525 0.5914,6.5048 4.4102,-0.9387 3.8832,19.98 -3.7602,2.2561 -0.1253,2.7574 -1.0027,1.128 1.128,2.2561 2.6321,0.7521 v 3.6348 l -1.0027,0.2506 -2.0054,6.1416 -4.0108,-0.2506 -0.6267,-1.2534 -2.3814,1.128 -0.1254,3.3841 -5.8909,0.7521 -8.147,5.7655 -3.6348,-0.1253 -8.0216,5.8909 -0.3749,3.6322 -10.5592,0.6039 -1.2024,1.8735 -5.8431,-0.9788 -7.2292,2.9236 -14.0382,10.2849 -7.3925,2.5469 -1.1239,-1.195 -0.1957,-1.7619 -7.635,-0.9789 -14.6635,2.4392 z"
       inkscape:connector-curvature="0"
       sodipodi:nodetypes="cccccccccccccccccccccccccccccccccccccccccccccccccccccccccccccccccccccccccc"
       inkscape:label="Cajigal" />
    <path
       id="Arismendi"
       transform="translate(3456.9319,2.5275578)"
       style="fill:#daae5b;fill-opacity:1;stroke:#646464;stroke-width:0.5;stroke-linecap:butt;stroke-linejoin:round;stroke-miterlimit:4;stroke-dasharray:none;stroke-opacity:1"
       d="m 6923.0261,1082.295 -2.0781,0.1299 -1.6884,3.247 -4.1562,2.208 -14.2869,2.0781 -1.4286,1.8183 h -3.3769 l -4.9355,4.6757 -0.5195,3.6367 -6.2343,4.4159 -7.5331,0.6494 -1.1689,1.4287 -1.8183,-0.6494 -3.1172,-2.208 -2.9872,0.3897 -4.9355,2.3378 h -3.3769 l -2.4677,-1.6884 -14.157,0.7793 -13.8972,4.8056 -1.9482,-1.4287 -6.3642,0.1298 -8.3371,6.5691 -3.0692,0.2142 -4.4967,-3.4975 -2.855,2.07 -8.4224,-3.2833 h -2.9264 l -5.8529,3.1405 h -2.7122 l -5.496,-3.9971 -8.7079,-0.071 -3.7829,-2.8551 h -1.6417 l -10.4209,8.7793 -4.9963,1.4989 -5.5674,0.1424 -4.2112,-0.8566 -3.6402,-0.071 -1.5702,1.7844 -5.5674,-2.0699 -3.7829,-4.3539 h -2.0699 l -3.9971,1.9985 h -5.0677 l -3.7829,-1.0706 -7.0663,-0.3569 -1.4275,2.0699 -4.1742,-3.3226 -1.6749,1.1964 -1.5554,-0.1197 -3.8285,-3.1106 -4.5464,-0.5982 -9.4517,5.6231 -5.8624,-2.991 -1.3161,-0.1197 -3.1107,1.9143 h -7.0588 l -8.8535,-7.0589 -5.1446,-1.316 -10.1696,4.666 -5.0249,-0.7178 -2.6321,-2.8714 -3.4696,3.8285 -8.2553,-0.4786 -3.7089,-3.3499 h -2.1535 l -0.7179,1.4357 h -6.2214 l -3.7088,-3.1107 h -0.9572 l -2.5125,2.6321 -3.5892,0.3589 -1.3161,-1.1964 -1.4357,-0.2393 -0.9571,1.3161 h -1.5553 l -3.9482,-2.5125 -17.707,-0.4786 -3.4816,2.2612 -5.7269,-2.8796 -7.2733,0.2597 -1.5585,1.6885 -1.5586,-0.2598 -4.9355,-3.8964 -7.1434,-0.7793 -0.9092,-1.5586 -1.9482,0.5196 -1.4287,1.2988 h -3.1171 l -4.0263,-2.5976 -5.8446,-0.9092 -0.9092,-1.1689 -2.3378,0.2597 -3.8965,3.247 h -1.5585 l -0.9092,-1.4286 -3.5068,-0.2598 -4.8056,5.455 -0.9091,4.9354 -2.4677,1.4287 -4.2861,0.2598 -2.8574,-2.8574 -2.0781,0.1299 -1.039,1.5586 -3.1172,-0.2598 -1.039,-1.8183 -4.8056,-0.2598 -4.5458,-3.3769 -1.5586,-0.3896 -7.2733,7.2733 -1.039,8.1825 -4.5458,3.3769 -1.6885,-0.5196 -0.7793,-0.9091 -4.286,0.1299 -17.1443,8.5721 -3.4493,0.5807 -4.4895,0.8004 -0.5914,-6.5048 -7.5397,-3.2525 -13.1575,-0.1478 -5.0264,2.2176 -5.7657,-3.696 -1.4784,-0.887 -7.1182,6.9192 -5.7436,2.8381 -2.5132,3.8437 -6.6527,1.9219 -5.47,-0.887 -1.3305,-0.7392 0.4435,-1.9219 1.3305,-1.0348 -0.2956,-4.2873 -9.2498,-11.8501 -2.4294,-4.412 h -1.9218 l -3.696,3.8438 -13.3053,0.4435 -4.8786,3.5481 h -3.9916 l -4.2873,-2.2176 -5.3221,0.1479 -0.2957,1.3305 -7.8354,1.1827 -1.0348,13.1575 -16.7795,33.4112 -3.1785,-1.6262 -8.8703,-0.2957 -3.9916,-3.9916 -3.8437,0.5913 -2.6611,2.3654 -0.5913,4.2873 -4.8787,-0.4435 -0.887,-1.9219 -3.5481,3.6959 -1.9219,-0.5913 -0.4435,-2.2176 -3.4002,-2.9567 -3.9916,0.1478 -2.3654,1.6262 -9.7573,-0.4435 -2.2175,2.2176 -7.9832,-1.9219 h -3.1046 l -2.3654,1.3305 -2.2176,-0.1478 -3.8437,-5.0265 -3.5481,-0.1478 -5.47,-2.5132 -10.8352,-0.4083 -7.5547,-7.1648 -4.2506,-0.087 -1.8216,2.1687 -12.1446,0.4337 -6.3325,-2.8626 -10.963,0.1536 -15.3488,-24.4811 3.7559,-4.9712 0.221,-2.9826 -15.4335,-6.079 22.6783,-9.6711 4.5496,-0.4265 5.6869,-3.5544 0.7109,-4.1231 -2.2748,-0.9952 0.1422,-1.4217 4.5496,-0.4265 0.4265,-1.564 h 0.2844 v 0.8531 l 2.4169,0.5687 -0.1421,2.5591 -1.1374,-1.1374 h -1.564 l -0.5687,4.6918 5.5448,4.9761 4.834,1.1374 0.9952,1.9904 7.6774,1.2796 0.9953,0.8531 4.2652,-0.4266 0.2844,-2.8434 5.4026,-1.9905 8.1039,-0.5687 0.7109,-1.4217 h 1.8483 l 3.1214,1.8581 4.3653,-0.4225 2.8163,-1.8305 8.5896,-0.4225 2.3939,-2.9571 1.2673,-0.2816 v 1.5489 l 5.2101,4.2245 4.5061,0.2816 0.4224,0.8449 1.4082,0.1408 1.4081,-1.2673 6.7591,0.4224 3.0979,-2.3938 -1.9714,-1.9714 4.2244,-2.6755 1.9714,-0.1408 v -2.253 l 0.9857,-0.1408 0.4225,1.9714 3.5203,1.1265 0.1408,2.8162 2.9571,2.8163 6.1959,0.5633 5.0693,4.0836 10.7019,1.1265 0.8449,1.549 3.2387,-0.7041 0.8449,1.2673 3.3795,-0.2816 1.8306,-1.6898 3.802,0.7041 1.8306,0.8449 6.759,0.2816 2.9571,2.6755 4.6469,-0.1408 0.4225,-0.8449 1.4081,-0.4225 4.3652,-5.0693 2.8163,-0.2816 3.802,2.6755 4.3653,0.704 2.9571,-3.0979 5.3509,-3.5203 h 1.5489 l 0.8449,0.9857 2.6755,0.1408 2.1122,-2.3939 v -2.1122 h 0.8449 l 0.9857,1.6898 6.1958,-0.2816 5.7734,-3.5204 0.2816,-1.1265 2.1123,0.2816 0.8448,0.9857 h 2.3939 l 1.1265,-1.4081 4.7877,-0.9857 0.1408,-3.6612 0.8449,-0.1408 0.4224,1.4082 10.7019,-4.5061 8.1672,0.4224 12.1101,-4.7876 1.1265,-3.802 3.3795,-1.549 6.4256,-5.1934 7.7966,-2.833 2.3939,-0.1408 0.7041,-1.6898 1.5489,0.2816 1.549,2.6755 1.9714,0.2816 0.4224,2.2531 5.6326,5.7734 4.2244,0.9857 0.5633,0.5632 2.1122,0.4225 1.1265,-1.549 1.1265,-0.1408 1.6898,2.253 15.0671,0.8449 1.1265,-1.4081 0.9857,-0.1409 0.4225,1.2674 8.0264,-1.4082 1.5489,-0.2816 1.2674,1.6898 11.1243,0.2816 1.5489,1.1265 9.857,0.7041 0.8449,1.8306 7.3224,0.1408 2.3938,-1.1265 3.0979,0.2816 2.3939,2.3938 1.1265,-1.5489 h 4.506 l 1.4082,2.3938 h 2.253 l 0.5633,-1.4081 7.0407,0.7041 0.2816,1.1265 1.549,-2.9571 5.2101,0.8449 0.7041,1.9714 2.5346,1.4081 h 7.1815 l 1.6895,1.2673 h 6.196 l 1.116,-1.8873 h 0.788 l 0.675,1.5756 3.151,0.3376 0.675,1.0128 2.026,0.1126 2.588,-2.1383 0.563,1.6881 1.126,0.4502 0.9,-1.1254 h 2.138 l 2.026,2.2508 6.865,-0.1125 1.688,-1.238 0.338,1.0129 6.527,0.5627 2.701,2.8135 h 3.489 l 0.337,-1.463 0.901,-0.2251 2.588,1.2379 9.679,-0.1125 0.45,1.463 4.727,0.1126 1.237,-1.238 h 1.351 l 1.238,0.9003 0.563,-1.463 1.35,-0.3376 0.675,1.5756 2.251,0.9003 1.013,2.3633 2.138,-0.1125 1.013,-1.3505 8.778,0.1126 1.463,1.9131 2.251,0.9004 0.563,-1.9132 2.926,-1.4631 1.463,0.3377 0.338,0.9003 10.804,2.1383 1.238,1.6881 3.826,1.0129 1.913,-2.4759 1.351,0.1125 1.012,1.2379 -0.225,3.4888 2.251,2.2508 3.039,-0.2251 1.575,-1.3504 0.563,-1.9132 1.688,0.1125 1.463,1.3505 0.675,3.9389 3.264,2.4759 0.675,-1.3505 2.251,-0.2251 8.666,-5.5145 5.064,0.2251 0.563,3.3763 3.489,0.3376 4.164,-4.164 2.138,0.225 0.675,1.4631 7.653,-0.2251 5.402,1.9132 0.338,1.2379 3.938,-0.1125 0.563,-1.238 5.065,-2.1382 0.337,0.9003 2.589,0.1125 3.601,3.1512 0.788,3.9389 3.038,0.3376 0.901,1.3505 h 3.038 l 0.45,-1.463 1.463,-0.3376 0.788,1.9132 h 8.891 l 2.251,-3.2637 1.125,-2.8135 6.527,-3.0386 0.226,-1.0129 -2.589,-2.2508 2.138,-1.238 0.338,1.238 1.913,0.3376 1.126,1.5756 h 3.263 l 0.676,-1.1254 2.363,-0.4502 0.788,1.3505 5.289,0.2251 4.389,-4.9518 2.814,-0.2251 0.251,3.0774 1.961,1.8213 h 3.503 l 2.802,-2.6619 3.782,0.2802 3.363,2.6619 3.783,-0.2802 1.12,-2.1015 4.624,0.8406 0.84,1.2609 0.701,0.4203 3.222,-3.2223 v -3.5025 l -1.541,-0.8406 v -1.2609 l 2.522,-1.5411 h 2.521 l 0.561,1.2609 3.222,0.1401 1.961,-1.2609 0.841,-0.8406 3.244,0.3696 0.679,1.3116 v 0.8406 l -2.802,1.5411 -0.14,1.5411 h 4.763 l 2.242,1.9614 h 0.98 l 1.962,-3.9228 1.961,0.1401 0.981,1.8213 2.241,0.5604 2.943,-2.3817 v -3.5025 l -1.121,-0.1401 1.121,-0.8406 0.14,-2.9421 -1.682,-0.4203 0.421,-1.1207 3.362,0.1401 4.764,4.4831 6.304,-0.5604 v 0.7005 l -1.681,0.9807 v 1.8213 l 1.821,1.6812 1.401,0.1401 0.42,-0.9807 9.247,-1.6812 v -1.6812 l -1.261,-0.7005 -0.7,-3.0822 -0.981,-0.2802 v -0.5603 l 1.961,0.1401 c 0,0 0.14,0.9806 0.701,0.9806 0.56,0 3.923,1.1208 3.923,1.1208 l 6.304,0.4203 0.701,2.2416 2.101,2.802 1.121,-2.5218 0.42,0.9807 0.56,0.2802 0.701,1.1208 5.044,0.4203 4.343,-6.0243 1.12,-6.0242 1.261,-0.1401 0.841,1.5411 4.203,0.8406 6.164,-1.6812 12.189,0.9807 0.56,-3.0822 3.783,-3.5025 1.261,-3.9228 1.401,-1.401 1.401,1.401 -1.261,1.8213 v 1.5411 l 2.101,1.5411 3.363,0.2802 3.502,1.401 0.28,2.1015 h -4.202 l -0.701,2.9421 -1.401,0.1401 -0.981,-1.5411 -1.4645,-0.1751 z"
       inkscape:connector-curvature="0"
       sodipodi:nodetypes="ccccccccccccccccccccccccccccccccccccccccccccccccccccccccccccccccccccccccccccccccccccccccccccccccccccccccccccccccccccccccccccccccccccccccccccccccccccccccccccccccccccccccccccccccccccccccccccccccccccccccccccccccccccccccccccccccccccccccccccccccccccccccccccccccccccccccccccccccccccccccccccccccccccccccccccccccccccccccccccccccccccccccccccccccccccccccccccccccccccccccccccccccccccccccccccccccccccccccccccccccccccccccccccccccccccccccccccccccccccccccccccccccccccccccccccccccccccccccsccccccccccccccccccccccccccccccccc"
       inkscape:label="Arismendi" />
    <path
       id="Libertador"
       transform="translate(3456.9319,2.5275578)"
       style="fill:#44f15a;fill-opacity:1;stroke:#646464;stroke-width:0.5;stroke-linecap:butt;stroke-linejoin:round;stroke-miterlimit:4;stroke-dasharray:none;stroke-opacity:1"
       d="m 6276.8184,1236.8405 5.771,-4.1551 4.386,-8.1949 5.3094,-7.6177 3.3442,-3.3848 1.9577,-1.5662 4.8942,-2.7407 3.9154,-0.9789 16.8553,-5 -0.9297,-3.4717 -3.9635,-2.086 -3.755,0.1043 -1.8775,1.6688 h -16.6887 l -3.1292,2.6076 -3.2334,0.1043 -4.798,-4.3807 -0.2086,-6.2583 2.1903,-2.2947 v -3.8593 l -0.6258,-0.1043 -2.7119,-12.2036 -0.4172,-4.1722 1.2516,-0.8345 1.7992,-4.7831 -3.0785,-1.594 -8.8703,-0.2957 -3.9916,-3.9916 -3.8437,0.5913 -2.6611,2.3654 -0.5913,4.2873 -4.8787,-0.4435 -0.887,-1.9219 -3.5481,3.6959 -1.9219,-0.5913 -0.4435,-2.2176 -3.4002,-2.9567 -3.9916,0.1478 -2.3654,1.6262 -9.7573,-0.4435 -2.2175,2.2176 -7.9832,-1.9219 h -3.1046 l -2.3654,1.3305 -2.2176,-0.1478 -3.8437,-5.0265 -3.5481,-0.1478 -5.47,-2.5132 -10.9028,-0.4819 -15.233,20.3994 0.1793,3.227 1.9721,3.9441 95.0866,56.794 z"
       inkscape:connector-curvature="0"
       sodipodi:nodetypes="cccccccccccccccccccccccccccccccccccccccccccccccccccccc"
       inkscape:label="Libertador" />
    <path
       id="Benitez"
       transform="translate(3456.9319,2.5275578)"
       style="fill:#76b86e;fill-opacity:1;stroke:#646464;stroke-width:0.5;stroke-linecap:butt;stroke-linejoin:round;stroke-miterlimit:4;stroke-dasharray:none;stroke-opacity:1"
       d="m 6269.3159,1240.9949 -7.2715,2.8855 -7.1561,6.0019 -5.4248,6.2327 -2.3084,0.5771 -4.0397,-1.1542 -3.6935,-5.7711 -3.578,-1.8467 -6.9252,1.1542 -3.8089,2.5393 -0.1154,4.386 4.1551,5.0785 0.5771,4.0397 0.4617,2.5392 0.2308,6.6944 0.5771,0.808 7.7332,0.4617 3.0009,-0.9234 3.4627,0.6925 v 3.3472 l -1.3851,1.1542 -1.7313,4.1552 -0.1154,4.3859 5.5402,4.9631 3.6934,0.3463 1.5005,-1.0388 5.5402,-5.1939 3.2318,-1.7313 h 6.5789 l 1.3496,1.3182 v 10.1799 l 1.5661,2.3493 0.4585,4.0146 0.1514,3.8587 4.4653,3.546 2.8894,0.6566 0.394,1.97 -7.3547,0.788 -1.3133,5.7787 -4.4653,7.3546 -2.495,1.3133 -1.9807,-0.6053 -0.4119,-1.4827 -6.0132,1.318 -1.8946,4.201 -3.7069,3.7892 v 2.0594 l 2.5536,-0.8238 5.2719,-7.8255 3.1303,0.1648 0.4118,2.3064 -1.5651,1.1533 0.2471,1.2356 1.7299,-0.2471 3.0478,-4.2835 1.2356,-0.4118 0.9885,1.3179 -2.8831,3.0479 -0.2471,2.9654 1.7299,0.659 0.082,4.4482 -1.2356,2.7183 0.7414,1.1533 2.2241,-3.7892 0.082,-3.0478 0.9061,-1.7299 2.2538,1.0336 1.3134,3.94 -0.942,2.0343 1.355,1.0162 v 1.8066 l -1.9196,2.9358 -7.2264,2.1453 -2.597,3.2745 -2.4841,1.0162 -1.2421,-0.5645 -1.0162,-2.1454 h -1.6937 l -0.5645,3.0487 2.1766,1.3236 2.364,1.5759 1.0507,-1.1819 4.2026,-1.3134 0.1314,2.2327 -3.152,2.1013 -2.1014,3.4147 0.1314,0.394 3.152,-2.364 0.5253,0.394 -0.1313,3.152 0.5253,0.1313 1.576,-5.516 2.7602,-0.053 0.1129,1.6937 3.1616,1.6937 0.6775,-0.6775 0.1129,-5.5328 h -2.3712 l -0.8871,-3.4462 2.3432,-0.7699 1.182,-1.7073 h 1.8386 l 1.0507,2.6267 0.5253,4.4653 -1.4446,0.788 -0.1314,1.3133 0.9194,0.788 0.7879,-1.576 h 1.4447 l 0.2627,3.94 2.364,1.97 0.788,-0.1313 v -4.4654 l -1.3134,-1.4446 -0.1313,-3.0207 2.6267,-1.97 1.182,1.0507 0.1313,1.576 2.4953,1.3133 v 1.3133 l -1.8386,1.0507 0.394,1.0507 3.1519,-0.788 0.394,-4.728 1.7074,-0.394 0.6566,1.97 3.4147,1.0506 1.4447,-0.2626 -0.394,-1.8387 -3.0207,-1.4446 0.2627,-3.94 3.6773,-4.0714 1.3576,1.1794 -0.1331,1.597 1.8632,2.1293 0.7985,-0.7985 v -3.8594 l -3.8594,-2.2624 0.1331,-2.7947 1.73,-0.6654 0.3993,-2.5286 -3.8594,-2.5286 -3.9925,-1.8631 -0.9316,-6.2549 0.9316,-5.7226 3.5932,-0.6654 2.2624,-1.1978 -2.7947,-1.0646 -1.8632,1.0646 -3.7263,-1.1977 -1.597,-2.9278 -0.5323,-3.5933 1.0273,-1.5053 0.5253,-3.152 h -2.8893 l -7.3547,-5.91 -0.9193,-11.1633 1.97,-5.3847 3.546,-3.1519 10.3753,-0.2627 2.364,-1.0507 5.6473,-0.394 3.152,1.7074 0.788,2.7579 10.7693,14.3153 0.5253,0.9194 4.334,1.97 6.698,-0.394 6.0413,-4.334 9.7186,-2.1014 9.7187,-0.6566 6.698,-3.152 6.0413,-10.244 3.0579,-7.8509 3.3365,-1.8685 2.2689,0.1335 4.5377,3.8704 7.207,4.2708 7.0734,5.7389 9.6093,4.6711 7.207,2.8027 2.5358,3.737 0.9342,5.205 0.6673,1.2012 v 1.735 l -2.2689,4.1373 -4.1373,3.3365 -2.8027,2.1354 -2.5358,-0.1334 -4.4042,-2.8027 -12.1451,-0.8008 -6.94,-3.3366 -10.677,-7.0734 -7.6073,-0.6674 -2.5358,2.1354 -4.4042,0.8008 -0.4004,1.4681 7.6073,-0.2669 2.2689,-2.002 h 2.0019 l 0.4004,0.8008 -1.3346,0.8008 -0.1335,1.735 3.2031,1.0677 0.4004,1.3346 2.9362,0.5339 0.5338,-1.6016 h 1.8685 l 2.6707,1.9646 0.7275,2.494 -3.0137,4.6764 -4.4685,1.8705 -1.5588,2.7019 3.7411,0.7274 6.7547,-5.4037 -0.4157,-3.3254 1.2471,-2.1823 2.2862,0.5196 0.8313,3.6371 -2.494,5.196 2.1823,2.1822 -0.3118,2.8059 -1.3509,0.9352 v 4.7803 l 3.1175,1.5588 0.104,1.8705 3.0136,-1.4549 v -2.1823 l -1.6627,-1.247 -1.1431,-3.1175 0.5196,-10.0802 2.2459,-2.6095 11.5347,0.089 5.4719,2.5358 0.9343,0.5338 1.4681,-0.5338 5.4719,-3.0697 2.4023,-2.9361 2.1354,0.2669 0.9343,2.6692 3.203,10.8105 4.1374,2.9361 13.0793,0.5339 0.5338,6.94 -1.2012,1.4681 0.267,7.4739 3.2031,3.0696 0.6652,4.1235 v 4.3016 l 3.5195,5.4748 1.7598,1.5643 1.7598,3.715 v 3.1285 l -0.1956,21.7037 1.9553,6.0614 0.7821,3.324 -0.5865,4.1062 3.5195,4.1061 9.4438,7.1745 7.5672,9.2499 1.9553,4.8883 1.3687,7.8211 4.4972,12.5139 1.5642,3.5195 v 0.9777 l 2.9895,0.901 -2.0759,5.5954 -7.0227,4.8282 -14.1919,8.3395 -7.3153,9.1691 -10.2416,3.0724 -14.4013,-1.6071 -7.5448,0.387 -6.5838,-1.3168 -5.706,-3.6577 -5.8523,-6.8765 -3.804,-2.1946 -3.9503,-0.4389 -8.5342,5.2671 -5.4134,6.8764 -1.1704,8.4859 0.1328,8.0047 -2.4872,1.7557 -5.0445,-0.3555 -5.2751,1.2271 -7.7608,-1.4146 -3.804,-2.0484 -4.6818,-7.6563 -0.8779,-7.0227 -1.1704,-4.2429 -3.804,-2.7799 -3.9503,0.1463 -2.4873,3.804 -1.463,6.7302 -2.6336,3.365 -3.6577,1.3168 h -6.8764 l -9.0711,-2.7798 -2.3409,-1.3168 -1.1705,-3.3651 1.0242,-2.0483 4.2429,-7.169 -1.3168,-6.2913 -2.1946,-2.4872 -4.3892,-0.5852 -4.0966,0.7315 -9.8026,8.3395 -0.4389,1.902 -3.5114,-0.2926 -2.0483,-2.7798 v -3.6577 l -2.6336,-3.5114 -4.9744,-1.4631 h -3.6577 l -1.0242,0.8779 -3.9503,1.7557 -2.4872,4.3892 -0.4389,7.608 -2.3409,2.3409 -3.2188,0.1463 -3.3651,-1.902 -2.9261,-5.8523 -5.4134,-7.608 -5.9986,-1.6094 -7.0228,-3.365 -7.9006,-9.6563 -4.6818,-1.7557 -0.5853,-1.6094 -1.7557,-1.0242 0.439,-3.2187 1.3167,-1.3168 -0.1463,-6.7301 -4.9744,-4.243 -2.9262,-3.9503 0.4389,-2.7798 0.7316,0.1463 0.5852,-3.5114 1.1705,-1.0241 0.2926,-2.341 -2.1946,-1.7557 h -3.6577 l -2.9262,-1.7556 0.7316,-2.9262 0.8778,-0.8778 0.7315,-8.047 -2.7798,-2.1946 -5.9986,0.2926 -2.7799,1.902 -3.2187,7.1691 -2.9262,1.6094 -4.6818,-1.1705 -5.2671,-3.5113 -6.1449,-10.8268 0.2926,-4.5355 1.3168,-1.4631 -0.1412,-0.9644 2.7034,-3.7541 1.8636,-1.7748 1.5974,-0.1775 3.8159,2.6623 2.1298,-0.6212 2.7511,-4.2597 -0.089,-2.3073 -8.1643,-5.4133 -3.0173,-0.5324 -0.2662,-4.6147 -0.4437,-3.106 -1.5974,-1.1536 -5.0583,-0.1775 -4.4372,2.396 -1.0649,2.7511 -4.6146,0.2662 -8.5193,-8.5193 -1.9523,-4.0822 -1.6862,-1.5086 -2.751,-0.089 -1.4199,1.5973 -1.5086,-0.1775 -3.3722,-3.9046 0.089,-3.9935 2.5736,-3.3722 -0.71,-2.4848 -3.9047,-3.0172 h -1.8636 l -4.4371,3.9046 -4.3484,-0.6212 -4.5259,-3.106 -10.2054,-18.6359 -0.4437,-6.212 -1.6861,-1.4199 v -3.5497 l 2.0411,-0.5325 3.685,-4.4401 2.09,-0.2767 1.2956,-1.6657 0.9254,-4.0718 3.3314,-1.1105 0.9254,-1.4806 v -6.6628 l 1.1105,-1.8508 0.3701,-3.3314 -62.0014,-16.8422 11.4749,-22.3946 15.848,-42.7228 30.8625,-5.6036 0.1105,-7.7328 -1.657,-5.8549 -17.1228,-11.3783 1.878,-1.1047 1.7675,-7.2909 15.6866,-11.5993 1.2152,-0.1105 1.2152,1.1047 8.8375,0.3314 9.6596,-8.1073 11.0183,0.067 6.3325,2.8626 12.1446,-0.4337 1.8216,-2.1687 4.2506,0.087 7.7395,7.1266 -15.4856,20.3644 0.1793,3.227 1.9721,3.9441 95.3472,56.8805 z m 28.2706,-26.9204 2.1535,-1.7619 11.9419,-1.7619 17.0318,-0.7831 3.9154,-2.9366 0.5873,-2.3492 h 2.1535 l 6.6561,4.8942 2.9366,8.6139 0.783,8.2223 -2.1534,1.5661 -1.3704,8.8096 1.5661,11.9419 6.0689,14.6827 2.1534,8.0265 v 2.3492 l -1.5661,-0.7831 -0.5873,1.3704 0.1957,5.09 -1.5661,4.1111 -0.5873,6.2646 -2.9365,-0.1957 -3.5536,0.7834 -5.2523,-1.452 -7.2472,0.8643 -5.4815,3.9154 -3.9154,0.7831 -2.3492,-2.1535 -11.5504,-14.2911 -7.4392,-1.7619 -9.5927,0.1958 -0.5873,0.9788 -10.1799,1.3704 -7.4393,4.3069 -4.983,1.0617 -3.2318,-0.2309 -2.3084,0.2309 -1.0388,1.6159 -2.5393,0.5771 -4.963,5.3093 -1.7314,0.8079 -4.5014,-2.6546 -1.385,-3.5781 1.5005,-4.7322 1.385,-1.1542 0.808,-2.4239 -0.3463,-3.578 -1.9622,-1.1542 -5.1939,-0.4617 -2.4238,1.3851 h -4.9631 l -0.8079,-0.9234 0.4616,-5.6556 -1.2696,-5.771 -0.9234,-2.4239 -3.2317,-3.3472 v -2.6546 l 1.7313,-2.4239 5.5402,-1.1542 4.0397,1.1542 3.578,5.5402 3.5781,1.7313 5.0785,-0.6925 3.2317,-3.2318 6.0019,-6.1173 7.2715,-4.2705 11.8883,-4.6168 5.8865,-6.1173 3.0009,-4.5014 7.964,-10.1571 z m 67.4189,50.1453 -8.7334,-15.3586 -0.9034,-14.4552 3.9149,-9.0345 6.023,-0.6023 2.4092,-1.2046 4.2161,2.1081 0.6023,2.4092 -1.2046,4.5172 -2.108,17.1656 0.3011,11.1425 -1.5057,3.3126 z m 81.3105,76.7933 5.7218,-9.6368 2.1081,-3.6138 0.3011,-3.915 -2.108,-3.6138 -0.6023,-5.4207 -3.3127,-6.3241 -7.8299,-9.0345 -14.154,-13.8529 -10.2391,-9.938 -10.2391,-14.4552 -13.2506,-14.4551 -6.6253,-17.4667 -2.7104,-3.6138 -3.6138,-1.5058 -2.108,1.8069 -2.4092,9.0345 -3.915,8.4322 -1.2046,8.7333 0.9035,6.9265 v 7.5287 l 1.5057,4.8184 4.2161,3.915 12.9495,7.5287 10.5402,5.7219 5.1196,1.5057 3.3126,3.6138 1.8069,3.6138 1.8069,4.8184 3.3127,1.2046 7.8299,2.4092 1.2046,2.7104 2.108,3.0115 3.915,4.2161 4.5172,7.2276 4.2161,1.8069 4.8184,2.108 2.4092,2.4092 1.2046,3.915 -2.4092,4.5172 -1.5057,1.8069 0.6023,2.1081 z m -156.8829,9.3364 -0.3594,-1.3654 -2.8027,-0.3594 -0.1438,-0.7186 0.8624,-1.1499 -0.2874,-1.0061 -4.3839,-0.4312 -6.8992,-5.2463 -3.234,-5.8212 -4.5994,-0.503 0.072,-2.156 2.5871,-2.8747 3.3778,-6.4679 0.1437,-2.5872 0.5031,-1.2218 2.5153,-0.2874 3.0184,1.4373 0.3593,2.6591 3.5933,4.815 1.078,5.4619 2.2279,4.5994 0.3593,1.4373 1.5092,2.2279 3.0903,2.156 0.2874,3.737 -0.6468,1.0062 -1.0061,1.4373 -0.2875,0.7187 z m -3.0184,4.6713 h -2.9465 l -1.2936,-1.7248 -1.0062,-0.503 -0.2156,-1.7967 2.0842,-1.7248 h 1.6529 l 0.5749,0.8624 3.1621,0.7906 0.6468,1.7966 -0.7186,0.9343 -1.2218,0.2874 z m -9.702,-3.0183 -3.1621,-3.6652 -0.9343,-5.2463 1.4374,-0.4312 2.659,3.234 3.4496,0.5031 1.2217,2.0841 -1.1498,0.7905 -0.8624,4.0964 -0.5031,-0.072 z m 159.063,-11.8929 v -3.3126 l 0.9035,-3.0115 -1.2046,-6.023 -2.4092,-0.9035 h -3.915 l -8.4322,-0.9034 -1.5057,-1.5058 -3.6138,-7.2276 v -3.0115 l -1.5058,-3.0115 -0.6023,-5.1195 0.9035,-1.2046 3.0115,0.3011 3.3126,3.915 6.023,3.9149 5.1196,6.6253 3.9149,5.4207 3.3127,1.2046 5.4207,2.4092 1.8069,3.6138 -2.4092,4.2161 -4.2161,1.8069 h -1.2046 l -1.2046,2.4092 z"
       inkscape:connector-curvature="0"
       sodipodi:nodetypes="cccccccccccccccccccccccccccccccccccccccccccccccccccccccccccccccccccccccccccccccccccccccccccccccccccccccccccccccccccccccccccccccccccccccccccccccccccccccccccccccccccccccccccccccccccccccccccccccccccccccccccccccccccccccccccccccccccccccccccccccccccccccccccccccccccccccccccccccccccccccccccccccccccccccccccccccccccccccccccccccccccccccccccccccccccccccccccccccccccccccccccccccccccccccccccccccccccccccccccccccccccccccccccccccccccccccccccccccccccccccccccccccccccccccccccccccccccccccccccccccccccccccccccccccccccccccccccccccccccccccccccccccccccccccccccccccccccccccccccccccccccccccccccccccccccccccccccccccccccccccccccccccccccccccccccccccccccccccc"
       inkscape:label="Benitez" />
    <path
       id="Bermudez"
       transform="translate(3456.9319,2.5275578)"
       style="fill:#c6e86e;fill-opacity:1;stroke:#646464;stroke-width:0.5;stroke-linecap:butt;stroke-linejoin:round;stroke-miterlimit:4;stroke-dasharray:none;stroke-opacity:1"
       d="m 5987.1699,1136.9238 6.6539,0.9403 5.1351,-3.761 12.2954,-10.3425 2.3867,-0.3616 8.1728,8.679 5.4967,2.3868 11.6444,0.3616 13.3079,16.6348 29.5087,1.3742 10.1256,20.3958 2.8453,31.4173 30.8837,-5.6058 0.1105,-7.7328 -1.657,-5.8549 -17.1228,-11.3783 1.878,-1.1047 1.7675,-7.2909 15.6866,-11.5993 1.2152,-0.1105 1.2152,1.1047 8.8375,0.3314 9.8869,-7.9538 -15.5208,-24.4136 3.7559,-4.9712 0.221,-2.9826 -15.4335,-6.079 -6.041,2.5559 -3.1279,0.4266 -0.1421,0.7108 1.5639,1.4218 -1.5639,5.4026 -6.1135,0.4265 -1.2796,2.1327 -2.5592,-0.2844 -0.1421,-1.1374 -0.8531,0.5687 0.2844,1.9904 -3.2701,0.1422 -8.957,-4.4074 -0.2843,-1.4217 -1.2796,0.5687 -0.2843,2.2748 -0.9953,0.4265 v 1.7061 l 1.564,0.9952 -0.2844,1.8483 -2.9856,0.7108 -1.2796,1.2796 -2.0258,-0.5359 -0.4585,-0.9171 -5.5022,-0.5731 -6.19,-3.3243 -5.6168,-1.9487 -0.4585,-1.7194 -1.3756,-1.6048 h -4.2413 l -0.4585,-2.6365 -1.1463,0.1146 v 1.0317 l 0.3439,0.6877 v 2.2926 l -2.178,4.8145 -6.19,0.4585 -1.4902,-1.6048 -5.9607,-1.4902 -4.6998,-5.7315 v -4.4705 l -0.8024,1.0316 -1.2609,0.2293 v 1.1463 l 0.917,0.5731 -0.2293,1.7195 -2.6364,2.4072 -3.3243,-0.2293 -0.4585,-0.917 -1.8341,-0.2293 -4.929,-3.3242 0.5731,-3.7828 -1.6048,0.2293 -1.3756,1.7194 -0.2292,2.0634 -4.0121,5.5022 h -1.9487 l -0.1146,-3.5535 1.4902,-1.0317 -1.6048,-1.1463 -1.6048,1.9487 0.4585,2.8657 -2.7511,2.0634 -0.1147,1.1463 2.7512,0.4585 -0.1147,1.7194 -1.6048,0.8024 -1.7194,2.4072 -3.5535,-0.2292 -3.5536,2.6365 -4.2413,0.1146 -0.917,-2.9804 -1.9487,-1.1463 -2.9804,0.4586 v 2.9803 l 1.6049,0.9171 -0.1147,2.8657 -1.4902,1.2609 h -2.9259 z"
       inkscape:connector-curvature="0"
       sodipodi:nodetypes="cccccccccccccccccccccccccccccccccccccccccccccccccccccccccccccccccccccccccccccccccccccccccccccccccccccccccc"
       inkscape:label="Bermudez" />
    <path
       id="Andres_Mata"
       transform="translate(3456.9319,2.5275578)"
       style="fill:#a1856f;fill-opacity:1;stroke:#646464;stroke-width:0.5;stroke-linecap:butt;stroke-linejoin:round;stroke-miterlimit:4;stroke-dasharray:none;stroke-opacity:1"
       d="m 6116.8835,1303.8188 -7.0591,-0.2302 -5.821,-5.0385 -5.7618,0.4116 -0.6859,1.2346 -68.8664,-23.5956 -1.0974,-2.195 -2.8809,-20.7148 -16.0505,-22.9097 v -1.0975 l 12.4837,-13.8556 v -1.2346 l -31.5523,-39.0975 -2.422,-38.5722 6.6539,0.9403 5.1351,-3.761 12.2954,-10.3425 2.3867,-0.3616 8.1728,8.679 5.4967,2.3868 11.6444,0.3616 13.3079,16.6348 29.5087,1.3742 10.1256,20.3958 2.914,31.3892 -15.8958,42.7532 -11.4749,22.3946 62.0014,16.8422 -0.3701,3.3314 -1.1105,1.8508 v 6.6628 l -0.9254,1.4806 -3.3314,1.1105 -0.9254,4.0718 -1.2956,1.6657 -2.0677,0.1445 z"
       inkscape:connector-curvature="0"
       sodipodi:nodetypes="ccccccccccccccccccccccccccccccccccccc"
       inkscape:label="Andres_Mata" />
    <path
       id="Andres_Eloy_Blanco"
       transform="translate(3456.9319,2.5275578)"
       style="fill:#528fbe;fill-opacity:1;stroke:#646464;stroke-width:0.5;stroke-linecap:butt;stroke-linejoin:round;stroke-miterlimit:4;stroke-dasharray:none;stroke-opacity:1"
       d="m 6173.3981,1388.343 -1.902,-0.1463 -0.6269,0.3953 -0.3422,3.8777 -2.1669,0.7983 -2.395,5.8165 -1.2546,5.3603 -2.7371,2.281 -1.3686,1.8248 -0.1141,6.7288 -4.4479,9.8083 -2.8512,2.6231 h -3.7636 l -1.9389,0.6843 -3.1933,3.7636 -2.281,0.2281 -3.4215,2.7372 -0.7983,1.9388 -2.5091,-0.6843 -2.281,-4.1058 v -2.9652 l -1.5967,-1.5967 -2.9652,-1.3686 -6.3218,-0.071 -6.4542,-5.7922 v -1.9859 l 1.8205,-1.1584 0.1654,-5.2957 -3.1443,-2.6479 h -14.7287 l -1.9859,-1.3239 -0.331,-3.6409 -2.1514,-1.6549 -4.7993,-0.4964 -15.0597,-4.4683 -0.9929,-0.993 h -3.9718 l -6.1232,2.1514 -4.6338,-2.4823 -8.2746,-0.662 -2.1513,-1.4894 -6.4542,-10.2605 -5.2957,-2.4824 -0.331,-4.1373 -2.8134,-0.1655 -7.7781,3.3099 -0.331,1.1584 h -2.4823 l -1.655,-0.8274 -5.6267,-0.993 -3.8063,-4.7992 -0.8274,-5.7922 -2.4824,-1.655 h -1.6549 l -3.4753,1.8204 -4.9648,0.1655 -0.8274,0.8275 -4.1373,0.1655 v -1.6549 c 0,0 0.331,0.1655 0.9929,-0.662 0.662,-0.8275 8.9366,-14.8942 8.9366,-14.8942 l -0.8275,-1.9859 -7.4395,-0.433 0.015,-3.3781 -4.6642,-4.5271 0.4115,-1.7834 0.686,-0.6859 1.6462,-3.5668 0.9603,-6.5848 0.8231,-1.3719 8.5054,-6.0361 2.8808,-6.8592 4.9387,-3.1552 h 3.2924 l 1.2346,-0.8231 2.8809,-0.2744 0.5487,0.686 h 3.1553 l 4.3899,-1.5091 0.5487,-0.9603 0.4115,-0.1371 0.8231,1.2346 5.3502,0.1372 2.6065,-3.018 16.1877,-2.0578 1.9206,-2.3321 -38.1372,-27.7112 -0.4115,-6.0361 -3.9783,-3.704 -0.686,1.0975 -2.4693,-0.2744 -3.7039,-3.1552 0.5487,-7.4079 -19.6173,-28.26 -28.8087,-69.9638 0.1372,-10.7004 3.704,-4.1155 v -1.3718 l -4.3899,-3.9784 -0.5487,-4.3899 -3.7569,-2.6989 3.0358,0.031 1.6049,2.2926 2.6364,0.2293 0.6878,1.0316 1.3756,-1.3755 1.1463,0.1146 1.1463,2.0634 3.7827,-0.2293 2.7511,-5.3876 0.5732,-2.9804 1.3755,-0.4585 0.8024,1.1463 5.3876,0.5732 0.1147,-1.0317 2.7511,0.2293 2.8657,2.0633 -0.4585,3.2096 h 1.589 l 2.9647,42.6059 31.5523,39.0975 v 1.2346 l -12.4837,13.8556 v 1.0975 l 16.0505,22.9097 2.8809,20.7148 1.0974,2.195 68.8664,23.5956 0.6859,-1.2346 5.7618,-0.4116 5.821,5.0385 7.0591,0.2302 2.6631,3.2014 -3.8382,4.4805 -2.0411,0.5325 v 3.5497 l 1.6861,1.4199 0.4437,6.212 10.2054,18.6359 4.5259,3.106 4.3484,0.6212 4.4371,-3.9046 h 1.8636 l 3.9047,3.0172 0.71,2.4848 -2.5736,3.3722 -0.089,3.9935 3.3722,3.9046 1.5086,0.1775 1.4199,-1.5973 2.751,0.089 1.6862,1.5086 1.9523,4.0822 8.5193,8.5193 4.6146,-0.2662 1.0649,-2.7511 4.4372,-2.396 5.0583,0.1775 1.5974,1.1536 0.4437,3.106 0.2662,4.6147 3.0173,0.5324 8.1643,5.4133 0.089,2.3073 -2.7511,4.2597 -2.1298,0.6212 -3.8159,-2.6623 -1.5974,0.1775 -1.8636,1.7748 -2.7032,3.7543 z"
       inkscape:connector-curvature="0"
       sodipodi:nodetypes="ccccccccccccccccccccccccccccccccccccccccccccccccccccccccccccccccccccccccccccccccccccccccccccccccccccccccccccccccccccccccccccccccccccccccccccccccccccccccccccccccccccccccccc"
       inkscape:label="Andres_Eloy_Blanco" />
    <path
       id="Cruz"
       transform="translate(3456.9319,2.5275578)"
       style="fill:#c580d0;fill-opacity:1;stroke:#646464;stroke-width:0.5;stroke-linecap:butt;stroke-linejoin:round;stroke-miterlimit:4;stroke-dasharray:none;stroke-opacity:1"
       d="m 5817.3058,1165.032 7.6348,-35.7495 -1.4077,0.057 -0.7192,1.9179 -3.1165,0.9589 -8.8702,0.8391 -3.4761,-2.0378 -3.4761,-0.1198 -1.9179,-2.0378 -2.5172,-0.2397 -0.9589,1.9179 -0.9589,-1.4384 -3.596,-1.0788 -25.5316,-26.6104 -1.6781,-0.839 -0.4795,-1.0788 -1.5582,0.7192 v 0.839 l 2.0377,0.7192 -0.1199,1.9179 -1.3185,0.1199 -0.7192,8.031 -2.9966,3.596 -0.5994,2.5172 -1.6781,1.0788 0.5993,7.9112 -2.0377,0.7192 0.1199,2.1576 1.6781,0.4794 0.1199,1.798 -0.5994,0.3596 -0.4794,1.0788 -1.7132,-0.015 -0.9822,-1.3505 h -0.3683 l -2.3327,4.0514 -5.893,3.9287 -6.6297,0.6139 -5.5247,1.3505 -4.4198,2.2099 -1.8415,-0.3684 -0.8595,-1.2277 h -0.6138 l -0.7366,1.3505 -2.701,-0.1228 -4.7881,2.3327 -4.6653,0.3683 -1.105,-1.3505 h -1.2277 l -0.7366,2.4555 -2.4554,0.3683 -2.701,1.2277 -10.19,-0.2456 -1.7188,-2.2098 -6.7525,-2.9466 -5.5247,0.4911 -1.9643,2.0871 h -3.6832 l -1.2277,1.5961 -1.4732,-1.4733 -8.9624,-0.1228 -1.8415,-1.9643 -1.7188,-0.7366 v -1.3505 l -0.4911,-0.1228 -1.105,3.3148 -3.8059,-0.3683 -0.2455,-0.9821 -3.4376,0.1227 -3.9287,3.3149 -2.2099,0.1227 -0.3683,-0.7366 -2.9465,-1.7188 h -6.5069 l -2.9465,-1.1049 -2.9466,-4.4198 -0.8594,-2.8238 -1.596,-2.2098 h -5.6475 l -0.4911,-1.5961 -0.9821,0.1228 -0.9822,1.7188 -3.1921,1.1049 -2.3326,0.2456 -0.6139,0.2455 -1.2277,3.9287 -4.1742,2.0871 -2.4555,0.2456 -1.1049,0.9821 -2.2099,-0.1227 -0.6138,-1.105 -0.9822,-0.2455 -1.105,1.4732 -6.5068,0.1228 -4.5426,2.2099 -3.8059,5.893 -3.0693,0.9822 h -5.1564 l -3.1921,2.3327 -2.3326,0.2455 -0.6139,-2.3327 -2.4554,-1.4732 -1.9643,0.1228 -0.4911,1.2277 h -3.3149 l -3.9287,-5.0337 -2.9465,-0.491 -0.7366,-1.8416 -0.9822,0.1228 -0.6138,1.8415 -3.3149,0.7367 -0.9821,0.8594 -1.9644,-0.1228 -5.0336,-7.2435 -0.2455,-1.4733 -4.6654,-0.4911 -0.6138,-0.9821 -0.7367,0.7366 -2.2098,-0.1228 -0.9822,-1.596 -1.105,1.4732 -4.5425,0.6139 -1.2277,1.4733 -1.7188,-0.1228 -2.3327,-1.4733 h -6.1385 l -1.3505,1.2277 h -2.9465 l -0.1228,-1.2277 -2.2099,-0.3683 -7.1208,-9.9445 v -1.9643 l -2.2098,-2.0871 h -1.5961 l -0.7366,1.1049 -1.4733,0.8594 -0.2455,1.7188 1.7188,0.8594 -0.4911,0.9822 -1.1049,0.2455 -0.7367,1.9644 -3.0692,2.9465 -1.105,-0.1228 -4.0514,2.8238 -1.3505,2.5782 -4.297,-0.1228 -0.9822,1.7188 -0.8594,0.4911 -0.7366,2.8237 3.3148,1.596 4.297,10.9267 0.7366,5.5247 1.3505,0.9822 4.297,6.8752 1.105,2.9465 4.0514,3.5604 1.3505,0.1228 1.7188,1.4732 v 8.594 l -1.2277,1.2277 -0.1228,5.2792 -1.4732,0.7366 0.1227,1.9644 1.2277,2.2099 7.2436,7.7346 1.2277,3.9287 4.0514,5.5247 2.701,0.6138 1.2277,1.4733 0.2456,1.8416 3.192,-0.4911 8.594,-8.594 -0.2455,-9.3307 1.8416,-3.9286 3.3148,-2.5782 1.3505,-3.806 3.6831,-2.2098 h 5.0337 l 4.4197,-1.4733 8.4713,-5.6475 0.9821,-1.9643 8.8396,-0.3683 3.6831,-1.5961 7.3663,-1.8416 5.6475,-0.7366 -0.1228,1.8416 -2.2099,0.6138 0.4911,2.0872 1.3505,1.4732 3.4376,0.2456 1.7188,-1.4733 0.6139,0.8594 -1.105,1.3505 -1.8415,0.6139 0.2455,0.9821 5.6475,0.3683 1.8416,-1.8415 6.1385,-0.9822 5.6475,-0.3683 3.6832,-2.0871 0.2455,-2.4555 3.1921,-1.1049 -0.3683,2.9465 0.8594,1.3505 2.5782,-0.1228 0.3683,-1.2277 4.5425,-1.4733 4.9109,-0.1227 0.3683,-0.9822 -1.9643,-1.2277 -2.2099,-0.2456 -0.9822,-1.7188 1.7188,-0.9821 3.8059,-0.3683 0.3683,-1.7188 -2.3326,-0.3684 0.8594,-0.1227 0.1227,-2.8238 1.2278,-2.7009 2.9465,6.1385 1.9643,-3.0693 0.6139,0.2456 v 0.8594 l 1.9643,0.1228 0.9822,-1.2278 2.9465,0.1228 0.2455,1.3505 1.7188,-0.1228 1.3505,-1.2277 2.3327,0.1228 -0.3683,0.6138 -2.4555,1.105 -0.8594,1.8416 -2.3326,1.3504 -0.6139,-1.1049 -0.4911,-0.1228 -0.9821,1.3505 -4.1743,0.7366 -1.596,2.5782 -1.7188,0.9822 -0.2455,0.9822 4.7881,0.3683 1.2277,1.1049 1.1049,-1.2277 1.596,-0.8594 1.105,-0.8594 0.6138,0.1228 -0.6138,1.4733 6.2613,-0.1228 2.9465,-1.105 10.4356,-0.6138 0.3683,-1.105 0.4911,0.1228 0.4911,2.5782 1.7188,0.3683 0.7366,-1.596 h 0.8594 l 0.9822,1.4733 h 3.1921 l 0.8594,-1.4733 h 1.4732 l 1.2277,1.4733 0.4911,-1.3505 1.105,-0.3683 1.2277,-1.4733 11.7861,0.3683 0.1227,0.4911 -1.9643,0.4911 -0.3683,0.7366 6.0891,0.187 0.7548,1.5095 c 0,0 3.6479,1.5094 4.1511,1.761 0.5031,0.2516 1.5094,1.7611 1.5094,1.7611 l 2.1385,0.3773 10.9437,8.428 h 7.2958 l 0.8805,1.2579 8.1763,0.1257 1.1322,1.1322 2.6415,0.1257 1.0064,-1.1321 5.9121,-0.6289 1.8868,-1.0063 2.39,0.1258 1.3837,1.0063 h 2.39 l 1.3837,-1.3837 3.3963,0.6289 1.3837,1.0064 4.78,-0.1258 1.5095,1.3837 5.409,-0.1258 1.1321,-0.7548 3.6479,0.5032 3.019,3.6479 3.5221,0.5031 1.761,3.648 6.4153,5.0315 3.6479,1.2579 9.1796,1.2295 z m -72.2171,-53.47 h -3.5535 l -0.8361,-1.6722 -1.2542,-0.4181 -0.209,-1.0451 1.6722,1.0451 h 3.1355 l 1.2542,0.6271 z m -15.8474,-1.6304 0.9038,-0.8034 -0.5021,-1.8076 h -1.2051 l -0.703,1.205 z"
       inkscape:connector-curvature="0"
       sodipodi:nodetypes="cccccccccccccccccccccccccccccccccccccccccccccccccccccccccccccccccccccccccccccccccccccccccccccccccccccccccccccccccccccccccccccccccccccccccccccccccccccccccccccccccccccccccccccccccccccccccccccccccccccccccccccccccccccccccccccccccccccccccccccccccccccccccccccccccccccccccccccccccccccccccccccccccccccccccccccccccccccccccccc"
       inkscape:label="Cruz" />
    <path
       id="Ribero"
       transform="translate(3456.9319,2.5275578)"
       style="fill:#db7a5a;fill-opacity:1;stroke:#646464;stroke-width:0.5;stroke-linecap:butt;stroke-linejoin:round;stroke-miterlimit:4;stroke-dasharray:none;stroke-opacity:1"
       d="m 5803.9457,1339.8495 21.3654,35.546 4.3731,9.8986 0.3017,3.7201 1.4075,0.9048 0.2011,3.2173 -1.307,1.8098 h -2.3125 l -1.8097,4.9265 -1.5081,1.2065 0.2011,1.4076 1.9925,3.4869 6.6529,-0.057 1.1585,-1.6549 22.6723,-11.7499 3.8063,-0.1655 4.4683,-1.8204 0.6619,-1.324 2.8134,0.331 4.1373,3.6408 3.1443,0.8275 1.1585,1.1584 3.1443,-0.4964 0.662,-1.1585 9.9295,0.4965 1.8204,1.9859 1.6549,5.9577 4.4683,3.6408 3.4753,0.4965 0.4965,-2.6479 3.6408,-2.4824 0.3309,0.1655 0.4965,1.8204 4.9648,-0.4964 0.6619,-2.3169 4.1373,-5.6267 1.9859,-8.4401 -0.331,-2.9789 -1.3239,-0.9929 0.331,-1.4894 0.662,-0.1655 -0.1655,-1.4894 6.2886,-3.6409 0.8275,-3.6408 -0.8275,-2.1514 -2.6478,-2.9788 0.6619,-3.4753 3.4754,-3.6408 3.4753,-0.662 2.3169,-4.6338 6.9506,-4.6337 1.8204,-0.1655 1.9859,-2.6479 7.2816,0.1655 6.1232,-1.4894 3.4753,-5.6267 5.1303,-0.331 0.8274,-2.9789 1.1585,-0.6619 4.1373,-0.662 12.0809,8.7711 v 5.2957 l 1.1584,1.3239 11.7577,0.5595 0.016,-3.3787 -4.6642,-4.5271 0.4115,-1.7834 0.686,-0.6859 1.6462,-3.5668 0.9603,-6.5848 0.8231,-1.3719 8.5054,-6.0361 2.8808,-6.8592 4.9387,-3.1552 h 3.2924 l 1.2346,-0.8231 2.8809,-0.2744 0.5487,0.686 h 3.1553 l 4.3899,-1.5091 0.5487,-0.9603 0.4115,-0.1371 0.8231,1.2346 5.3502,0.1372 2.6065,-3.018 16.1877,-2.0578 1.9206,-2.3321 -38.1372,-27.7112 -0.4115,-6.0361 -3.9783,-3.704 -0.686,1.0975 -2.4693,-0.2744 -3.7039,-3.1552 0.5487,-7.4079 -19.6173,-28.26 -28.8087,-69.9638 0.1372,-10.7004 3.704,-4.1155 v -1.3718 l -4.3899,-3.9784 -0.5487,-4.3899 -3.7569,-2.6991 -0.6323,1.1767 -3.3243,0.5732 0.1147,0.8024 6.19,1.4902 0.3439,4.4705 -4.1267,4.1267 -2.2926,0.3439 -1.0317,0.6877 -7.4509,0.5732 -6.8778,1.3755 -2.5218,0.9171 -4.1267,0.2292 -1.7194,-2.0633 h -6.3046 l -1.261,-0.917 -4.929,0.2292 -1.1463,1.3756 -3.2096,-0.1146 -1.6049,-1.7195 -4.2412,-1.1463 -0.4586,-1.7194 -1.2609,0.6878 -0.4585,1.2609 -1.8341,0.3439 -1.1463,2.6364 -3.8974,-0.1146 -2.1779,-2.1779 -5.7315,-0.8025 -0.8024,-1.3755 -1.4902,0.2293 -0.3439,1.2609 h -4.3559 l -1.1463,-1.4902 -3.7828,0.5731 -0.8024,1.261 -1.6048,-0.2293 -3.1712,-2.4349 -9.4695,0.2398 -1.5582,-1.3186 -2.8768,-0.5993 -1.3186,-1.4384 -0.839,0.2397 -0.7192,1.1987 -6.4728,-0.2397 -0.5993,-0.8391 -2.5172,1.0788 -0.959,-1.5583 h -2.9966 l -11.8668,-7.5515 -0.2397,-1.6782 -1.4692,0.064 -7.6349,35.7514 -26.1968,44.5325 9.8147,6.0649 3.1447,1.5094 4.2769,6.1637 0.6289,3.6479 1.0063,2.6416 0.3774,-0.1258 0.7547,-2.1384 1.8869,-2.1384 1.0063,0.7547 v 0.629 l 6.0379,1.2579 4.1511,0.7547 0.2516,1.1321 1.1321,0.2516 1.0063,-1.5095 2.2642,2.1384 1.6353,5.2832 5.7863,-0.1258 1.1321,-1.0063 9.0569,-3.019 2.39,-2.1384 8.8053,-2.8931 3.0027,-0.011 14.2811,-0.5261 1.4282,1.7287 -1.5033,1.1275 -1.7288,4.2843 -1.7287,-0.3758 -0.902,1.8791 -3.6079,0.6013 -0.9771,-1.2026 -2.1046,0.2255 -1.1274,0.6013 -3.0066,-0.2255 -1.1451,-2.8235 -1.5095,0.2515 -0.2516,1.5095 1.7611,0.8805 -0.1258,1.5095 -1.6353,0.1258 0.5032,1.1321 -1.8868,1.3837 -6.038,1.6352 -2.0104,1.0185 0.1869,7.991 2.2002,3.9604 2.4203,0.88 0.66,7.0408 -1.1001,2.4202 -4.4004,3.5204 -14.3015,38.9439 -0.66,2.6402 3.5203,8.8009 1.3202,0.8801 -0.8801,2.2002 -22.4423,3.5204 -9.681,15.8416"
       inkscape:connector-curvature="0"
       sodipodi:nodetypes="cccccccccccccccccccccccccccccccccccccccccccccccccccccccccccccccccccccccccccccccccccccccccccccccccccccccccccccccccccccccccccccccccccccccccccccccccccccccccccccccccccccccccccccccccccccccccccccccccccccccccccccccccccc"
       inkscape:label="Ribero" />
    <path
       id="Mejia"
       transform="translate(3456.9319,2.5275578)"
       style="fill:#9ea8d3;fill-opacity:1;stroke:#646464;stroke-width:0.5;stroke-linecap:butt;stroke-linejoin:round;stroke-miterlimit:4;stroke-dasharray:none;stroke-opacity:1"
       d="m 5776.2968,1345.7813 -3.8205,-0.2011 -9.5515,-14.3774 -12.9698,-10.0541 -5.4292,-3.0162 7.1384,-6.1331 -1.1059,-0.6032 -15.0812,5.3287 -2.9157,0.2011 -1.2494,-1.4728 0.021,-1.0182 0.9891,-1.3189 0.6595,-3.1323 -1.3189,-0.6594 0.4946,-4.6161 1.6486,-2.4729 0.6594,-3.7918 1.8135,-2.308 v -11.8699 l 1.8134,-1.9783 0.6594,-4.7809 5.1107,-2.6377 1.9783,-1.9783 0.8243,-7.2539 1.4837,-0.4945 -0.1648,-0.9892 -1.6486,-0.9891 v -1.9784 l 4.5609,-4.7861 2.2269,3.3822 2.8932,0.5031 0.629,-1.5094 1.3836,0.1258 0.629,1.2578 4.6542,-0.1257 0.8805,-3.1448 1.0064,-0.5031 2.39,1.5094 1.0063,1.6353 h 6.4153 l 7.0442,-2.5158 7.2958,-3.7737 7.799,-0.6289 2.1384,-1.6353 h 0.2516 v -2.0126 l 1.3837,-1.3837 1.0063,1.2579 1.2579,-1.1321 1.5095,-0.3774 1.0063,1.761 1.5095,0.2516 0.7547,-3.2705 2.0126,-1.0063 0.2516,0.7547 1.7611,0.3774 1.0063,-2.39 1.5095,-0.3774 0.2515,0.8805 1.6353,1.0063 0.2516,1.5095 6.4153,-0.1258 2.2642,-1.6352 2.39,-0.5032 1.6353,-2.39 h 1.0063 l 1.1321,1.3837 0.2516,1.0063 3.2705,0.3774 0.7547,-1.0063 5.2832,-2.1385 6.2917,-0.3652 0.1869,7.9911 2.2002,3.9604 2.4203,0.88 0.66,7.0408 -1.1001,2.4202 -4.4004,3.5204 -14.3015,38.9439 -0.66,2.6402 3.5203,8.8009 1.3202,0.8801 -0.8801,2.2002 -22.4423,3.5204 -9.7,15.8326 z"
       inkscape:connector-curvature="0"
       sodipodi:nodetypes="cccccccccccccccccccccccccccccccccccccccccccccccccccccccccccccccccccccccccccccccccccccc"
       inkscape:label="Mejia" />
    <path
       id="Bolivar"
       transform="translate(3456.9319,2.5275578)"
       style="fill:#74ce76;fill-opacity:1;stroke:#646464;stroke-width:0.5;stroke-linecap:butt;stroke-linejoin:round;stroke-miterlimit:4;stroke-dasharray:none;stroke-opacity:1"
       d="m 5746.3357,1261.1855 v 1.9784 l 1.6486,0.9891 0.1648,0.9892 -1.4837,0.4945 -0.8243,7.2539 -1.9783,1.9783 -5.1107,2.6377 -0.6594,4.7809 -1.8134,1.9783 v 11.8699 l -1.8135,2.308 -0.6594,3.7918 -1.6486,2.4729 -0.4946,4.6161 1.3189,0.6594 -0.6595,3.1323 -0.9891,1.3189 -0.1649,0.9892 -11.8699,2.308 -1.154,1.8134 -3.2972,-0.4945 -9.0672,-3.2972 -45.9958,-6.5944 -10.8807,-9.3145 -26.4333,-39.5443 1.5255,-0.6688 0.7905,-0.2635 1.1859,0.7906 4.8751,0.3952 0.2635,0.9224 1.1858,0.527 0.3953,-3.0305 1.7129,-1.0541 h 1.9764 l 1.1858,1.1859 0.7906,3.294 1.0541,0.6588 h 1.8446 l 0.7906,-2.3717 c 0,0 4.6583,-0.2756 5.1614,-0.2756 0.5032,0 4.5284,-2.2642 4.5284,-2.2642 l 3.5222,-0.1258 0.3773,-1.1321 0.5032,-0.1258 0.1258,0.7548 2.8931,0.1258 1.2579,-1.1322 2.6416,-0.2515 0.7548,1.761 1.761,-0.3773 0.8806,-2.0127 1.3836,-0.7547 0.2516,1.0063 1.8869,2.0126 h 1.761 l 2.0127,-2.0126 3.5221,-0.5032 3.6479,-4.2768 1.1321,0.2516 0.5032,0.8805 6.1637,0.2516 0.1257,4.2768 0.5032,0.2516 1.5095,-2.8932 2.0126,-0.1258 0.3774,1.1322 3.2705,0.5031 1.2579,-1.6353 1.6353,-0.2515 1.2579,1.3837 h 3.5221 l 2.6416,-1.2579 1.3837,-2.39 4.2768,-0.1258 0.3774,2.0126 5.6605,3.3963 5.5348,0.5032 4.9058,0.6289 0.7547,0.8806 12.3274,0.6289 5.5348,-4.2768 3.3078,1.272 z"
       inkscape:connector-curvature="0"
       sodipodi:nodetypes="ccccccccccccccccccccccccccccccccccccccccsccccccccccccccccccccccccccccccccccccccccccc"
       inkscape:label="Bolivar" />
    <path
       id="Montes"
       transform="translate(3456.9319,2.5275578)"
       style="fill:#b78d75;fill-opacity:1;stroke:#646464;stroke-width:0.5;stroke-linecap:butt;stroke-linejoin:round;stroke-miterlimit:4;stroke-dasharray:none;stroke-opacity:1"
       d="m 5602.0089,1464.9381 4.629,-0.6312 0.8416,1.052 12.0552,1.3319 3.8241,-2.2661 0.4249,-3.5409 2.5494,-5.382 4.1074,-3.116 9.6311,-1.2747 6.3735,2.8327 0.8498,2.4078 2.9743,1.9828 6.0903,-0.1416 3.6825,-2.4078 h 4.3906 l 2.1245,2.1245 5.807,0.7082 3.5408,1.2747 3.2576,2.2662 -0.1416,5.6653 -0.9915,0.7082 v 3.1159 l 0.724,1.2838 3.8221,-0.3219 2.1514,-1.3239 4.4682,0.331 2.6479,1.1584 6.1232,-0.1655 4.6338,-3.8063 10.4259,-0.3309 9.102,-4.4683 7.7781,-2.6479 12.2464,-1.6549 13.0738,-0.662 0.1655,-1.3239 3.6409,0.4965 1.9859,2.4824 3.8063,0.1655 2.3168,-3.9718 v -6.4542 l 7.7781,-6.9507 1.4895,-0.6619 0.3309,-7.1162 5.1303,-5.6267 5.4612,-0.331 0.9929,-1.4894 -0.3309,-4.1373 1.1584,-0.6619 0.4965,-3.3099 3.8063,-4.4682 2.9788,-0.1655 1.4895,1.3239 h 3.8063 l 0.4964,-1.1584 11.7499,-4.7993 4.6338,-0.1655 4.9647,-4.4682 3.2766,-0.2744 -1.9925,-3.4868 -0.2011,-1.4076 1.5081,-1.2065 1.8097,-4.9265 h 2.3125 l 1.307,-1.8098 -0.2011,-3.2173 -1.4075,-0.9048 -0.3017,-3.7201 -4.3731,-9.8986 -21.2649,-35.4454 -27.7494,5.8313 -3.8205,-0.2011 -9.5515,-14.3774 -12.9698,-10.0541 -5.4292,-3.0162 7.1384,-6.1331 -1.1059,-0.6032 -15.0812,5.3287 -2.9157,0.2011 -1.2494,-1.6377 -12.0133,2.4439 -1.154,1.8134 -3.2972,-0.4945 -9.0672,-3.2972 -45.9958,-6.5944 -10.7123,-9.3173 -16.6763,3.4405 0.3918,18.8033 -16.8447,15.6695 -13.3191,47.7919 -12.5356,9.01 -3.5256,3.5256 10.4011,70.8359 z"
       inkscape:connector-curvature="0"
       sodipodi:nodetypes="ccccccccccccccccccccccccccccccccccccccccccccccccccccccccccccccccccccccccccccccccccccccccccccc"
       inkscape:label="Montes" />
    <path
       id="Sucre"
       transform="translate(3456.9319,2.5275578)"
       style="fill:#d9c2b0;fill-opacity:1;stroke:#646464;stroke-width:0.5;stroke-linecap:butt;stroke-linejoin:round;stroke-miterlimit:4;stroke-dasharray:none;stroke-opacity:1"
       d="m 5590.2261,1469.7775 -1.0521,2.1041 -8.8371,1.2624 -17.6742,5.0498 h -5.4706 l -3.9978,2.5249 -15.1493,6.1018 h -8.6268 l -1.8936,-2.9457 -6.1019,0.2104 -2.3144,2.9457 -2.3145,-0.2104 -0.6313,-1.052 -8.6267,-0.4208 -1.052,1.052 -8.4163,0.2104 v -1.052 h -3.1561 l -1.2625,1.052 -1.2624,-1.2624 0.6312,-2.3145 -0.6312,-6.5227 -7.3643,-6.9434 v -1.8937 l -2.9457,-2.1041 -2.5249,0.6313 -0.6312,1.4728 -3.577,-0.2104 -0.4208,-1.8937 -2.104,0.6313 -2.5249,1.4728 -4.8394,0.2104 -8.6267,7.1539 -2.5249,0.2104 -2.3145,1.052 -3.9978,-0.4208 -3.1561,-3.7873 0.2104,-1.6833 -1.8936,0.8416 -0.4209,1.4729 h -3.9977 l -0.6312,1.052 -1.0521,-1.4728 0.6313,-1.0521 v -5.681 l -10.31,0.4208 -1.8937,-4.6289 -3.1561,-1.6833 h -1.0521 l -0.6312,-0.2104 0.6312,-1.2624 2.1041,-0.4209 1.4729,-1.2624 v -0.6312 l -2.9457,-0.2104 -3.1561,-0.8417 -0.8417,-3.3665 -0.4208,-1.052 -0.4208,-7.5747 -7.3643,-0.2104 -0.6312,-0.8416 -3.9977,-0.2105 -7.1539,5.0498 -4.8394,1.0521 -0.6312,1.052 -2.3145,-0.8416 0.8416,-36.4006 -1.8936,-2.104 -3.3666,-0.6313 -1.6832,-0.8416 h -3.3665 l -0.8417,1.2624 h -3.5769 l -2.9457,-2.7353 h -6.7331 l -1.6832,-1.6832 -0.8417,-4.8394 -2.3144,-0.8416 -1.2625,-1.4729 v -1.6832 l -3.9977,-2.3145 -6.1019,-0.4208 -0.8416,-1.2625 1.8937,-1.6833 v -2.7353 l -1.0521,-1.6832 0.4208,-1.6833 1.0521,-1.2624 -0.4208,-1.0521 -4.8394,-2.9457 -2.1041,-3.3665 -4.671,-2.8905 5.9957,0.1839 10.7373,5.0528 1.2632,1.7685 h 2.5264 l 1.1369,-1.3895 4.8002,-0.5053 6.9265,-3.6633 3.4107,-0.379 1.3895,-3.4106 1.3895,-0.2527 0.2527,1.2632 2.1474,0.2527 1.2632,-1.6422 -0.1263,-1.2632 -1.3895,-0.379 v -1.6421 l 1.1369,-0.2527 0.5052,-1.6421 0.758,-0.2527 0.8842,1.6422 1.7685,0.6316 0.8842,-0.7579 -0.1263,-2.4001 1.7685,-0.758 0.6316,-2.0211 -2.779,-1.0106 -0.379,-1.7684 -1.1369,-0.379 0.1263,-1.2632 1.5159,-0.5053 h 1.1369 l 0.1263,1.5159 1.5158,0.7579 2.2738,-0.7579 1.3895,-3.0317 h 1.2633 l 1.2632,1.7684 3.0317,0.2527 1.0105,-2.4001 -2.1474,-0.6316 h 4.0422 l 0.8843,-1.0106 5.6844,-0.1263 3.4107,1.5158 0.6316,1.1369 2.9054,-0.3789 -0.2527,-3.6633 1.5159,-1.0106 3.158,-0.7579 8.3372,-4.2949 v -2.6528 l -1.2633,-0.6316 -0.1263,-0.8842 h 1.6422 l 1.8948,1.0106 0.2526,1.6421 6.0634,-0.1263 0.5053,-3.9159 -2.5264,-1.8949 -0.7579,-3.0316 -3.0317,-2.4001 -2.4001,-0.1264 -0.5053,1.0106 -3.7896,1.2632 -2.9054,-0.1263 -0.7482,1.5887 h -1.6302 l -1.0867,-1.4942 h -1.4943 l -3.5319,1.2225 -1.3585,2.8528 -1.6301,-0.9509 -0.815,-1.766 -1.9019,-0.1359 -1.9018,4.0754 -1.3584,-0.4076 v -5.7054 l -1.6301,-0.6792 -0.9509,1.6301 -2.4452,-0.1358 -6.5205,1.6301 -1.0868,1.9018 h -1.7659 l -1.6301,-3.8036 -2.0377,-0.8151 -0.9509,1.3584 -2.4452,0.1359 -1.0867,-6.2488 -2.4452,-0.6792 -0.1359,-2.5811 1.4943,-0.2717 0.2717,-0.9509 1.6301,-0.4075 0.8151,2.9886 3.9395,3.9394 h 1.2225 l 1.9019,-2.7168 h 2.4451 v 0.6792 l -1.2226,0.6792 -0.4075,2.7169 0.8151,0.9509 6.1129,0.2717 5.0263,-2.9886 0.1358,-1.9018 -0.8151,-0.8151 0.1359,-1.0867 3.2602,0.2717 5.7055,-2.4452 3.6677,0.5434 0.2717,1.0867 h 1.4943 l 2.7169,-4.2111 h 1.7659 l 0.9509,1.0867 h 5.0263 l 4.0753,-5.1621 -1.0868,-2.0376 -4.347,-0.6792 -0.2717,-2.0377 1.2226,-0.1358 0.2717,-1.6301 -3.8036,-0.4076 -2.1735,-2.1735 0.4075,-2.3093 6.7922,-0.2717 0.5434,-3.1244 -5.5696,-0.8151 -0.2717,-2.0376 -3.2602,-0.4076 -0.2717,-2.0376 -1.766,-0.2717 0.9509,-1.4943 5.2979,-0.2717 2.7169,-2.4451 0.2717,-3.8037 0.815,-0.9509 1.766,0.9509 -0.2717,4.0753 1.3584,1.9019 1.2226,-0.4076 0.4076,-2.7169 2.3093,-1.4942 2.1735,-0.2717 0.1359,-1.9018 -2.1735,-0.4076 v -0.9509 l 1.9018,-0.2717 1.6301,-1.3584 1.766,0.1359 0.815,1.2225 h 2.7169 l 0.5434,1.3585 -2.5811,0.2717 -0.4075,1.3584 2.0377,2.8527 2.1735,-0.1358 1.3584,-2.1735 0.8151,0.1358 0.1358,1.4943 -1.2226,1.0868 -0.1358,6.928 1.2226,0.9509 0.1358,1.9018 -0.6792,0.1358 -1.3585,2.1735 -1.4942,3.532 -4.0753,-0.1359 -1.6302,1.4943 -0.2717,1.3584 1.9019,0.5434 0.4075,0.9509 -2.4452,2.1735 -3.3961,0.6792 -1.3584,0.2717 0.1358,2.3094 1.2226,0.6792 -0.1358,3.6678 2.3093,1.4942 4.2112,-3.1244 0.4075,-3.5319 h 0.9509 l 0.4075,1.766 h 1.6301 l 1.6302,-2.3094 1.6301,-1.0867 0.2717,2.1735 1.0867,-1.2226 h 2.4452 l 1.4943,-1.9018 -0.9509,-0.1359 -1.0868,-1.6301 -2.0376,-0.9509 -0.1359,-0.9509 2.5811,-0.8151 v -1.6301 l -2.5811,-1.4943 -0.1358,-1.9018 0.9509,-0.5434 0.4217,-1.269 1.0541,-0.2636 0.6588,1.9764 1.054,-0.1317 0.1318,-5.2704 -2.6352,-0.7906 -2.1082,-2.7669 0.6588,-1.5812 0.9224,1.1859 h 1.054 l 0.9224,1.4493 h 1.8446 l 1.7129,-2.2399 2.2399,-0.1318 0.3953,-1.3176 -1.9764,-0.2635 -1.1858,1.0541 h -1.7129 l -3.1623,-1.9764 1.3176,-1.5811 1.7129,-0.1318 2.3717,-3.5575 -2.2399,-1.0541 v -1.1858 l 1.9764,0.1317 0.7905,-1.054 3.294,-0.3953 0.5271,1.9764 h 2.8987 l 1.3176,-2.1082 1.1858,-2.1081 -1.3176,-0.5271 0.1318,-0.6588 3.294,0.1318 1.1858,-1.4494 h 8.6962 l 0.1318,1.3176 -1.5812,1.1859 0.5271,1.4493 h 1.4494 l 2.7669,-2.8987 0.2635,-2.2399 0.6588,-0.3953 0.5271,1.3176 2.7669,0.2635 2.24,-2.3717 13.5948,-0.1317 1.9765,1.3176 1.9764,0.527 2.2399,-1.9764 h 1.8446 l 1.0541,1.0541 1.7129,0.3953 2.7669,-1.0541 6.3245,0.2635 1.7129,-1.4493 1.5811,-0.2636 7.2468,-6.9833 8.1692,-9.882 1.9764,-6.9832 1.4493,-0.1318 0.1318,-2.5035 -2.6352,-1.3176 0.7905,-5.4021 4.6116,-3.1623 4.8752,-1.054 1.0541,-1.4494 h 1.1858 l 0.3953,0.6588 10.409,2.5034 0.6588,1.4494 3.9528,0.6588 1.5811,-1.1858 0.7906,-0.2636 1.1859,1.3176 h 1.8446 l 1.4494,-1.3176 h 5.7974 l 1.9764,-1.3176 5.374,-0.7188 1.741,0.7188 -0.1317,2.6352 10.8043,11.0679 8.6962,4.8751 13.7587,3.3041 26.6017,39.459 -16.6763,3.5229 0.3918,18.8033 -16.8447,15.6695 -13.3191,47.7919 -12.5356,9.01 -3.5256,3.5256 10.4011,70.8359 z m -237.3019,-154.3259 -1.3121,0.656 -1.2027,-2.4055 5.139,-4.483 0.328,-0.7654 2.7336,-0.2186 0.5467,1.2027 -2.2962,1.4214 -2.5148,4.483 z m 55.5454,0.4373 8.7473,-4.1549 c 0,0 0.6561,-0.9841 0.6561,-1.4215 0,-0.4373 -2.0775,-2.9522 -2.0775,-2.9522 l 1.3121,-1.0934 v -3.7176 l -3.2803,-1.7495 -0.984,1.0935 0.2187,7.8725 -3.0616,1.0934 -2.4055,3.6083 z m -1.3121,-7.7632 -5.7951,1.4214 -1.3121,1.4215 -2.9522,0.2187 -3.8269,-4.7017 0.8747,-5.1391 2.7335,0.3281 3.0616,-2.4055 -0.1093,-2.7336 1.4214,-0.5467 0.8747,0.8748 h 4.7017 l 0.656,3.0615 -2.5148,2.1868 0.328,1.4215 1.6401,0.984 z m -9.7314,6.7792 h -7.5445 l -9.4034,-6.6698 -6.2324,-0.6561 -0.2187,-1.2027 4.9204,-5.9045 1.9681,0.4374 3.8269,3.8269 1.7495,0.3281 1.7495,-0.8748 0.4373,3.827 2.1869,1.0934 0.8747,4.155 4.3736,0.2186 z m -26.4519,54.1899 -5.7991,-2.5774 -1.6108,-1.6108 -3.0607,-0.9665 0.6444,-1.2887 2.8995,-0.4833 2.8996,2.4163 2.7384,1.6109 h 2.0941 l 0.9665,0.8054 -0.3221,1.6109 z"
       inkscape:connector-curvature="0"
       sodipodi:nodetypes="cccccccccccccccccccccccccccccccccccccccccccccccccccccccccccccccccccccccccccccccccccccccccccccccccccccccccccccccccccccccccccccccccccccccccccccccccccccccccccccccccccccccccccccccccccccccccccccccccccccccccccccccccccccccccccccccccccccccccccccccccccccccccccccccccccccccccccccccccccccccccccccccccccccccccccccccccccccccccccccccccccccccccccccccccccccccccccccccccccccccccccccccccccccccccccccccccccccccccccccsccccccccccccccccccccccccccccccccccccccccccccccccccccc"
       inkscape:label="Sucre" />
  </g>
  <g
     inkscape:groupmode="layer"
     id="layer2"
     inkscape:label="compass"
     style="display:inline">
    <g
       id="g874"
       transform="matrix(0.2764246,0,0,0.2764246,1275.0767,260.74774)"
       style="opacity:0.55400002">
      <g
         id="g842">
        <g
           id="g840">
          <path
             id="path830"
             d="m 903.7,490.7 -84,-12.5 C 815.9,401.9 784.2,333 734.3,281.6 l 79.2,-79.2 -5.5,-5.5 -79.1,79.1 c -53.2,-52.1 -125.3,-84.7 -205,-86.7 l -11.1,-75.2 v 75 0 -75 l -11.2,75.6 c -76.5,3.7 -145.6,35.4 -197.2,85.4 l -79,-78.2 -5.9,5.9 79,78.1 c -51.4,52.6 -83.7,123.8 -86.3,202.3 l -72.6,10.8 72.7,10.8 c 2.9,77.5 34.7,147.6 85.1,199.9 l -77.9,77.5 5.9,5.9 77.9,-77.4 c 52.4,51.4 123.3,83.8 201.7,86.6 l 11.1,75.3 v -74.7 0 74.7 l 11.1,-75.3 c 78,-2.9 148.5,-34.9 200.9,-85.9 l 79.5,79.5 5.9,-5.9 -79.5,-79.5 c 51.3,-52.7 83.5,-123.8 86,-202.4 z M 440,449.6 357.6,461.8 c 5.6,-28 18.4,-53.1 36.4,-73.9 z m -28.2,-79.3 c 19.4,-16.4 42.5,-28.2 68,-34.1 L 468.7,411 Z m 70.7,-52.2 c -4.2,0.8 -8.3,1.7 -12.4,2.8 l -5.8,-33.2 c 7.6,-1.9 15.5,-3.1 23.4,-4.2 z m -16.5,3.8 c -12.7,3.7 -24.8,8.7 -36.2,15 l -16.1,-29.5 c 14.5,-8 30.1,-14.2 46.5,-18.7 z m -39.7,17.2 c -10.3,6 -19.7,13.3 -28.5,21.2 l -28,-20 c 12.2,-11.7 25.7,-22 40.5,-30.5 z m -42.5,35 c -8.4,9.3 -16.1,19.2 -22.4,30.1 l -26.8,-20.4 c 8.2,-13.5 18,-25.7 28.8,-37.1 z m -24.6,33.7 c -6.4,11.6 -11.3,24.1 -15,37.1 l -32.5,-8.3 c 4.8,-17.4 11.8,-33.9 20.7,-49.2 z m -16,41.1 c -1.3,5.1 -2.2,10.2 -3,15.4 l -34.7,5.1 c 1.2,-9.8 2.8,-19.4 5.2,-28.8 z m 115,6.4 21.9,15.2 v 0.5 c -2.5,4.5 -4.2,9.4 -5,14.6 H 253.4 Z m -67.3,139.9 c -16.1,-19.6 -27.5,-43 -32.8,-68.8 l 74.2,11 z m 80,-27.7 12.4,83.9 C 454.7,645.5 429,632 408,613.1 Z M 340.3,523.8 c 0.9,5.8 2.1,11.6 3.6,17.2 l -33.2,5.6 c -2.3,-9.1 -4,-18.5 -5.2,-28 z M 345,545 c 4.2,13.8 10.1,26.8 17.3,38.9 l -30.4,14.5 c -8.6,-14.9 -15.3,-30.9 -20,-47.8 z m 19.4,42.6 c 4.8,7.7 10.4,14.9 16.3,21.8 l -19.9,27.9 c -10,-10.9 -19.2,-22.5 -26.8,-35.2 z m 29.6,35.7 c 9.4,8.9 19.8,16.9 31,23.6 l -18.6,27.9 c -14.6,-8.8 -28,-19.5 -40,-31.4 z m 34.6,25.8 c 12,6.8 24.8,12.1 38.3,16 l -8.6,32.4 C 441.2,692.7 425.1,685.8 410,677 Z m 42.4,17 c 4.9,1.2 9.9,2 14.9,2.9 l 5.1,34.7 c -9.8,-1.2 -19.4,-2.9 -28.7,-5.3 z m 6.4,-111.5 1.6,-3.2 13.5,-19.4 6,-0.4 c 2.9,1.5 5.9,2.7 9.1,3.5 v 223.5 z m 13.7,-62.3 c 0,-15.3 12.5,-27.8 27.8,-27.8 15.3,0 27.8,12.5 27.8,27.8 0,15.3 -12.4,27.8 -27.8,27.8 -15.3,0.1 -27.8,-12.4 -27.8,-27.8 z m 104.6,44 78.9,-11.7 c -5.3,27 -17.3,51.6 -34.4,72 z m 26.4,79.1 c -17.7,15.4 -38.6,27.1 -61.7,33.7 l -0.6,0.1 v 0.1 c -3.6,1 -7.4,1.5 -11,2.2 l 12,-81.2 1,2 z m -63.6,-192 -13.2,-88.9 c 29.9,5.5 56.6,19.3 78.4,38.8 z m 80.1,-34.8 c 16.5,19.3 28.4,42.4 34.4,67.9 l -75,-11.1 z m 52.3,70.6 c -0.5,-2.7 -0.8,-5.4 -1.5,-8 l 33,-6.4 c 1.5,6.4 2.5,13 3.4,19.6 z m -2.5,-12.1 c -4,-14.8 -9.7,-28.9 -17.2,-41.9 l 29.9,-15.3 c 8.9,15.8 15.7,32.9 20.3,50.9 z m -19.3,-45.5 c -5.9,-9.7 -12.9,-18.6 -20.4,-27 l 20,-28 c 11.6,12 21.8,25.2 30.3,39.7 z m -31.9,-38.8 c -9.5,-8.8 -19.8,-16.8 -31,-23.5 l 19.1,-27.6 c 14.2,8.6 27.1,18.8 38.9,30.4 z m -34.6,-25.6 c -11.3,-6.3 -23.4,-11.4 -36.1,-15.1 l 11.2,-31.7 c 15.5,4.7 30.3,11.3 44.1,19.3 z M 562.4,321 c -6.4,-1.7 -13,-2.9 -19.7,-3.9 l -5.1,-34.6 c 12.3,1.3 24.4,3.5 36,6.8 z m -11,111.8 -13.5,19.4 c -5.2,-2.4 -10.9,-3.8 -16.8,-4.1 V 228 Z m -5.3,236.3 c 5.6,-0.9 11.2,-2 16.6,-3.5 l 6.1,33.1 c -9.1,2.3 -18.4,3.9 -27.9,5.1 z m 20.7,-4.5 c 13.6,-4.1 26.5,-9.8 38.6,-16.8 l 14.9,30.2 c -14.8,8.4 -30.7,15 -47.4,19.6 z m 42.3,-19 c 9.6,-5.9 18.4,-12.9 26.8,-20.5 l 28,20 c -12,11.7 -25.4,22.1 -39.9,30.7 z m 41.2,-35.3 c 6.7,-7.8 13.1,-15.9 18.4,-24.7 l 27.3,19.7 c -7.3,11.7 -16,22.4 -25.3,32.4 z M 671,582 c 7.6,-13.3 13.5,-27.6 17.6,-42.7 l 32,10.2 c -5.1,18.6 -12.7,36 -22.3,52.2 z m 18.6,-46.7 c 1,-4.3 1.7,-8.8 2.5,-13.3 l 34.3,-5.1 c -1.1,9.7 -2.5,19.3 -4.8,28.6 z m -104.5,-5.9 -21.9,-15.2 -0.8,-12.9 c 0.2,-0.7 0.4,-1.5 0.5,-2.2 h 223.8 c 0,0.2 0,0.3 0,0.5 z M 786,473.2 734.4,465.6 c -6.2,-48.7 -28.2,-92.5 -60.8,-126 L 681.2,329 671,336.8 C 635.7,301.9 588.6,278.9 536.3,274.1 L 528.7,223 C 665.6,229.4 776,337.4 786,473.2 Z M 512.7,222.5 v 66.8 z m -16.2,0.8 -7.7,51.7 c -8.8,1 -17.6,2.4 -26.1,4.5 v -0.2 l -4.1,0.7 0.1,0.5 c -36.6,9.9 -69.5,29.1 -96,54.7 l -17,-12.2 12.4,16.7 c -33.8,34.6 -56.2,80.3 -61.4,131.1 l -51,7.5 C 253.3,342.4 361.2,233 496.5,223.3 Z m -250.7,286.5 51.4,7.6 c 3.4,31.1 13,60.4 28,86.3 l 1,2 0.2,-0.1 c 8.3,14 18.2,26.9 29.3,38.7 l -10.1,14.2 13.9,-10.1 c 34.7,35.1 81,58.4 132.7,64 l 7.6,51.2 C 363.4,755.5 254.1,646.2 245.8,509.8 Z M 516,764.4 v -67 z m 16.2,-0.8 7.6,-51.3 c 50.8,-5.5 96.5,-28.1 131,-62.1 l 19.1,13.6 -14,-19 c 32.6,-34.4 54.2,-79.3 59.2,-129.1 l 51.2,-7.6 C 778.9,645.3 669.2,755.4 532.2,763.6 Z"
             inkscape:connector-curvature="0" />
          <polygon
             id="polygon832"
             points="528.3,88.5 557.2,88.5 557.2,21.7 532,21.7 532,58.8 531.7,58.8 504.9,21.7 474.8,21.7 474.8,88.5 500.1,88.5 500.1,51.1 500.3,51.1 " />
          <path
             id="path834"
             d="M 532.7,934.7 501.2,930 c -1.3,-0.2 -2.2,-0.5 -2.7,-1.2 -0.5,-0.6 -0.8,-1.3 -0.8,-2.2 0,-1.5 0.8,-2.6 2.3,-3.5 1.5,-0.9 4.3,-1.3 8.2,-1.3 1.4,0 2.9,0.1 4.3,0.3 1.5,0.2 2.8,0.6 3.9,1.1 1.3,0.5 2.3,1.2 3,2 0.7,0.8 1.1,2 1.1,3.3 h 30.6 c -0.2,-3.6 -1.2,-6.7 -2.9,-9.4 -1.7,-2.7 -4.3,-5 -7.8,-6.8 -3.5,-1.9 -7.8,-3.3 -13.1,-4.2 -5.3,-1 -11.7,-1.5 -19.1,-1.5 -5.4,0 -10.5,0.4 -15.2,1 -4.7,0.6 -8.8,1.8 -12.3,3.5 -3.5,1.7 -6.2,3.9 -8.2,6.8 -2,2.9 -3,6.4 -3,10.7 0,2.4 0.4,4.6 1,6.6 0.7,2.1 1.7,3.9 3.2,5.5 1.5,1.6 3.4,3 5.6,4.2 2.3,1.1 5.1,2 8.4,2.5 L 518,952 c 1.8,0.3 3.1,0.9 3.8,1.7 0.7,0.8 1,1.8 1,2.8 0,1.6 -0.7,2.9 -2.1,3.9 -1.4,1 -4.2,1.5 -8.3,1.5 -4.1,0 -7,-0.4 -9,-1.4 -1.8,-1 -2.7,-2.6 -2.8,-4.8 h -31.8 c 0,4.9 1.2,8.8 3.8,11.8 2.5,2.9 5.8,5.2 9.9,6.8 4.1,1.6 8.6,2.7 13.7,3.1 5.1,0.5 10.1,0.7 15.1,0.7 14.8,0 25.7,-1.9 32.6,-5.8 6.9,-3.9 10.3,-9.9 10.3,-18.1 0,-5.7 -1.9,-10.1 -5.7,-13.3 -3.8,-3.1 -9.1,-5.2 -15.8,-6.2 z"
             inkscape:connector-curvature="0" />
          <polygon
             id="polygon836"
             points="119.2,460 93.7,460 85.1,500.7 84.9,500.7 75.2,460 54.1,460 44.3,500.7 44.1,500.7 35.5,460 10,460 29.4,526.8 55.3,526.8 64.5,489.7 64.7,489.7 73.8,526.8 99.7,526.8 " />
          <polygon
             id="polygon838"
             points="919,455.8 919,522.6 990,522.6 990,506.3 945.4,506.3 945.4,497.3 986.8,497.3 986.8,481 945.4,481 945.4,472 990,472 990,455.8 " />
        </g>
      </g>
      <g
         id="g844" />
      <g
         id="g846" />
      <g
         id="g848" />
      <g
         id="g850" />
      <g
         id="g852" />
      <g
         id="g854" />
      <g
         id="g856" />
      <g
         id="g858" />
      <g
         id="g860" />
      <g
         id="g862" />
      <g
         id="g864" />
      <g
         id="g866" />
      <g
         id="g868" />
      <g
         id="g870" />
      <g
         id="g872" />
    </g>
    <path
       sodipodi:type="star"
       style="opacity:1;fill:#36007e;fill-opacity:1;stroke:none;stroke-width:0.3689757;stroke-opacity:1"
       id="path2357"
       sodipodi:sides="5"
       sodipodi:cx="243.16666"
       sodipodi:cy="276.14005"
       sodipodi:r1="8.5881729"
       sodipodi:r2="3.3449011"
       sodipodi:arg1="-0.50283424"
       sodipodi:arg2="0.15241499"
       inkscape:flatsided="false"
       inkscape:rounded="0"
       inkscape:randomized="0"
       d="m 250.69179,272.00131 -4.21901,4.64658 2.95544,5.37004 -5.7229,-2.57664 -4.19394,4.47022 0.68206,-6.23903 -5.54743,-2.60729 6.14444,-1.27929 0.76543,-6.08162 3.11541,5.44839 z"
       inkscape:transform-center-x="12.737499"
       inkscape:transform-center-y="-1.860139"
       transform="matrix(0.58898759,-1.0625952,1.0625952,0.58898759,-204.65798,367.58135)" />
    <circle
       style="display:inline;opacity:1;fill:#4d4d4d;fill-opacity:1;stroke:none;stroke-width:0.5138641;stroke-opacity:1"
       id="araya"
       cx="198.22742"
       cy="188.85387"
       r="3.4191439"
       inkscape:label="araya" />
    <circle
       style="display:inline;opacity:1;fill:#4d4d4d;fill-opacity:1;stroke:none;stroke-width:0.5138641;stroke-opacity:1"
       id="mariguitar"
       cx="369.67386"
       cy="288.62808"
       r="3.4191439"
       inkscape:label="mariguitar" />
    <circle
       style="display:inline;opacity:1;fill:#4d4d4d;fill-opacity:1;stroke:none;stroke-width:0.5138641;stroke-opacity:1"
       id="antonio"
       cx="459.73984"
       cy="289.97235"
       r="3.4191439"
       inkscape:label="antonio" />
    <circle
       style="display:inline;opacity:1;fill:#4d4d4d;fill-opacity:1;stroke:none;stroke-width:0.5138641;stroke-opacity:1"
       id="cumanacoa"
       cx="393.8707"
       cy="393.48102"
       r="3.4191439"
       inkscape:label="cumanacoa" />
    <circle
       style="display:inline;opacity:1;fill:#4d4d4d;fill-opacity:1;stroke:none;stroke-width:0.5138641;stroke-opacity:1"
       id="cariaco"
       cx="598.19952"
       cy="261.74271"
       r="3.4191439"
       inkscape:label="cariaco" />
    <circle
       style="display:inline;opacity:1;fill:#4d4d4d;fill-opacity:1;stroke:none;stroke-width:0.5138641;stroke-opacity:1"
       id="casanay"
       cx="666.7572"
       cy="249.64429"
       r="3.4191439"
       inkscape:label="casanay" />
    <circle
       style="display:inline;opacity:1;fill:#4d4d4d;fill-opacity:1;stroke:none;stroke-width:0.5138641;stroke-opacity:1"
       id="path856-3-1"
       cx="829.4137"
       cy="224.1032"
       r="3.4191439" />
    <circle
       style="display:inline;opacity:1;fill:#4d4d4d;fill-opacity:1;stroke:none;stroke-width:0.5138641;stroke-opacity:1"
       id="tunapuy"
       cx="872.4303"
       cy="216.03758"
       r="3.4191439"
       inkscape:label="tunpauy" />
    <circle
       style="display:inline;opacity:1;fill:#4d4d4d;fill-opacity:1;stroke:none;stroke-width:0.5138641;stroke-opacity:1"
       id="yaguaraparo"
       cx="1013.5785"
       cy="222.75893"
       r="3.4191439"
       inkscape:label="yaguaraparo" />
    <circle
       style="display:inline;opacity:1;fill:#4d4d4d;fill-opacity:1;stroke:none;stroke-width:0.5138641;stroke-opacity:1"
       id="irapa"
       cx="1212.5303"
       cy="217.38185"
       r="3.4191439"
       inkscape:label="irapa" />
    <circle
       style="display:inline;opacity:1;fill:#4d4d4d;fill-opacity:1;stroke:none;stroke-width:0.5138641;stroke-opacity:1"
       id="guiria"
       cx="1318.7274"
       cy="222.75893"
       r="3.4191439"
       inkscape:label="guiria" />
    <circle
       style="display:inline;opacity:1;fill:#4d4d4d;fill-opacity:1;stroke:none;stroke-width:0.5138641;stroke-opacity:1"
       id="rio"
       cx="880.49591"
       cy="135.38147"
       r="3.4191439"
       inkscape:label="rio" />
    <circle
       style="display:inline;opacity:1;fill:#4d4d4d;fill-opacity:1;stroke:none;stroke-width:0.5138641;stroke-opacity:1"
       id="carupano"
       cx="783.70856"
       cy="154.20123"
       r="3.4191439"
       inkscape:label="carupano" />
    <circle
       style="display:inline;opacity:1;fill:#4d4d4d;fill-opacity:1;stroke:none;stroke-width:0.5138641;stroke-opacity:1"
       id="path856-3-6"
       cx="724.56073"
       cy="190.49648"
       r="3.4191439" />
  </g>
</svg>
